<svg width="43" height="34" viewBox="0 0 43 34" fill="none" xmlns="http://www.w3.org/2000/svg">
<path fill-rule="evenodd" clip-rule="evenodd" d="M11.2209 30.2228L14.9085 29.1265V29.1209C15.5307 30.0035 16.3904 30.7231 17.4311 31.1897L12.0014 32.8089C11.5772 32.9382 11.1417 33 10.7062 33C9.96525 33 9.23563 32.8201 8.56258 32.4603C7.4936 31.8925 6.71874 30.948 6.37373 29.8011L0.19178 9.28683C-0.526525 6.91438 0.836557 4.40702 3.21771 3.69304L14.9821 0.190592C17.3689 -0.523389 19.8914 0.831489 20.6041 3.20393L21 4.51383L19.4503 8.78648L18.0023 3.97975C17.7705 3.20393 17.0522 2.70358 16.2773 2.70358C16.1076 2.70358 15.9323 2.72607 15.7626 2.77667L4.00389 6.27911C3.04803 6.56583 2.51072 7.56653 2.79351 8.511L8.98112 29.0253C9.11686 29.4807 9.42794 29.8574 9.85213 30.0822C10.2763 30.3071 10.7627 30.3577 11.2209 30.2228ZM30.1623 33.7478C30.6298 33.9178 31.114 33.9945 31.5871 33.9945V34C33.318 34 34.9487 32.942 35.5665 31.2482L42.7516 11.6019C43.1301 10.5603 43.0744 9.43112 42.5958 8.42249C42.1116 7.41386 41.2656 6.65191 40.2082 6.27915L28.8377 2.24464C27.7802 1.87189 26.6337 1.9267 25.6097 2.39813C24.5856 2.87503 23.812 3.70825 23.4335 4.74977L16.2484 24.3906C15.8699 25.4321 15.9256 26.5614 16.4042 27.57C16.8884 28.5786 17.7344 29.3406 18.7918 29.7133L30.1623 33.7478ZM33.4683 30.5027C33.0954 31.5223 31.9489 32.054 30.9137 31.6867L19.5432 27.6522C19.0423 27.4768 18.6416 27.115 18.4134 26.6381C18.1908 26.1612 18.1629 25.6295 18.341 25.1361L25.5262 5.48979C25.7043 4.99644 26.0716 4.60176 26.5558 4.37701C27.04 4.15774 27.5799 4.12486 28.0808 4.30575L39.4512 8.34027C39.9521 8.51568 40.3529 8.87747 40.581 9.35438C40.8037 9.83128 40.8315 10.363 40.6534 10.8564L33.4683 30.5027ZM13.9219 19.9606L9.50608 17.8356C9.04185 17.6136 8.65688 17.3018 8.3908 16.9159C8.13604 16.5565 7.9945 16.123 8.00016 15.642C8.00583 15.2191 8.12471 14.8015 8.33418 14.4315C8.54365 14.0615 8.8437 13.7338 9.21169 13.4906C9.63629 13.2052 10.1118 13.0572 10.5931 13.036C11.0233 13.0149 11.4536 13.0889 11.8725 13.2475C12.1103 12.8933 12.4217 12.6026 12.784 12.3806C13.1916 12.1374 13.6615 12 14.1993 12C14.6466 12 15.0995 12.1057 15.4958 12.2907C15.8977 12.4757 16.2544 12.7506 16.5205 13.0942C16.8205 13.4801 16.9734 13.9082 16.996 14.3469C17.0243 14.8015 16.8998 15.2667 16.6677 15.6948L16.6564 15.716L14.3975 19.8231C14.3126 19.9817 14.0974 20.0452 13.9219 19.9659V19.9606ZM29.968 14.075L26.3878 16.1802L26.3824 16.1741C26.1772 16.3019 25.9774 16.454 25.8046 16.6244C25.6318 16.8069 25.486 17.0016 25.3564 17.2146V17.2328C25.2376 17.4397 25.1458 17.6648 25.0864 17.9143C25.027 18.1576 25 18.4193 25 18.687C25 18.9182 25.0324 19.1494 25.0864 19.3745C25.1458 19.6057 25.216 19.8308 25.3186 20.0377C25.4158 20.2446 25.54 20.4453 25.675 20.6218C25.8154 20.7921 25.9666 20.9503 26.1394 21.0842C26.3392 21.2424 26.5498 21.358 26.7604 21.4432C26.9872 21.5344 27.214 21.5892 27.4462 21.5953C27.4752 21.5953 27.5036 21.596 27.5318 21.5966C27.5876 21.598 27.6426 21.5993 27.7 21.5953C27.6298 21.6744 27.5542 21.7413 27.4786 21.8021C27.1816 22.0394 26.836 22.1915 26.4634 22.2341C26.2798 22.2524 26.1448 22.4349 26.161 22.6479C26.1772 22.8061 26.269 22.9277 26.3986 22.9764L29.2282 23.9803C29.4064 24.0473 29.5954 23.9377 29.6494 23.737C29.6926 23.5727 29.6386 23.4023 29.5252 23.3111C29.2498 23.0373 29.05 22.6965 28.9312 22.3254C28.8934 22.222 28.8718 22.1185 28.8556 22.009C28.9204 22.0699 28.9852 22.1246 29.0554 22.1794C29.2552 22.3132 29.4658 22.4227 29.6926 22.4958C29.914 22.5627 30.1462 22.5992 30.3837 22.5992C30.5997 22.5992 30.8049 22.5688 31.0047 22.514L31.0371 22.5018C31.2315 22.441 31.4205 22.368 31.5987 22.2646C31.7877 22.155 31.9659 22.0212 32.1225 21.8691C32.2683 21.7352 32.4033 21.577 32.5221 21.4006L32.5545 21.3458C32.6895 21.139 32.7921 20.9077 32.8677 20.6705C32.9433 20.4271 32.9865 20.1776 32.9973 19.9221C33.0081 19.6665 32.9865 19.4171 32.9271 19.1555V19.1372C32.8731 18.8877 32.7921 18.6383 32.6841 18.4132L32.6625 18.3767L30.8103 14.3793C30.7293 14.2028 30.5889 14.0872 30.4431 14.0324C30.3135 13.9838 30.157 13.9899 30.0166 14.0507C29.995 14.0629 29.968 14.075 29.968 14.075Z" fill="url(#paint0_linear_10_16)"/>
<defs>
<linearGradient id="paint0_linear_10_16" x1="29" y1="14" x2="29" y2="24" gradientUnits="userSpaceOnUse">
<stop stop-color="#FF0101"/>
<stop offset="0.520733" stop-color="#FF2901"/>
<stop offset="0.520833" stop-color="#FF9901"/>
<stop offset="1" stop-color="#FF5301"/>
</linearGradient>
</defs>
</svg>
