<svg width="51" height="49" viewBox="0 0 51 49" fill="none" xmlns="http://www.w3.org/2000/svg">
<g clip-path="url(#clip0_3830_12715)">
<path d="M46.4156 21.6129C46.2429 21.1028 46.0404 20.6033 45.8091 20.1168C45.3523 19.1562 44.7985 18.2443 44.1559 17.395C42.9337 15.808 41.503 14.39 39.9015 13.1784C38.3039 11.96 36.5936 10.8934 34.7931 9.99238C34.3739 9.77813 33.9541 9.57306 33.5052 9.38474L33.2024 9.24206L32.7723 8.7686C32.0891 8.10407 31.3549 7.49294 30.5762 6.94064C29.7944 6.39849 28.9752 5.91098 28.1246 5.48162C27.6896 5.2655 27.2555 5.06423 26.8095 4.87516C26.5921 4.77911 26.3621 4.69247 26.1291 4.60658C25.8962 4.52069 25.6963 4.44414 25.4807 4.37776L25.1491 4.27584L24.9909 4.23041L24.9064 4.21061C24.8978 4.2031 24.887 4.19856 24.8756 4.19769L24.8495 4.22569C24.6954 4.35689 24.5283 4.47345 24.377 4.60389L24.1409 4.79299C24.068 4.86 23.9994 4.93148 23.9356 5.00701C23.8624 5.07898 23.793 5.15468 23.7277 5.23381C23.7025 5.27663 23.6735 5.30538 23.6476 5.34539L23.5936 5.42898C23.5106 5.54132 23.4575 5.63974 23.3753 5.75489C23.1356 6.15448 22.9351 6.57579 22.7766 7.013C22.4827 7.81828 22.2526 8.64468 22.0883 9.4847C21.9206 10.2951 21.7957 11.1135 21.7144 11.9363L21.6827 12.2881L21.0749 12.4311C19.3364 12.8918 17.6787 13.6155 16.1607 14.5765C15.9644 14.6978 15.7852 14.8146 15.6031 14.9321L15.1845 15.2147L15.1564 15.189L14.8798 15.0304L14.592 14.8867L14.0248 14.5852C13.8374 14.4872 13.648 14.4048 13.4464 14.3106L13.1586 14.167L12.8531 14.0371C12.0377 13.68 11.1895 13.4004 10.32 13.2021C9.85926 13.0936 9.39019 13.0225 8.91739 12.9893L8.66175 12.9787C8.5605 12.9734 8.45898 12.9742 8.35775 12.981C8.15284 12.9835 7.94855 13.0054 7.74761 13.0462C7.55293 13.0744 7.36064 13.1173 7.17242 13.1745L7.13257 13.1851C7.13178 13.1958 7.12678 13.2058 7.11863 13.2129L7.10655 13.2823L7.05461 13.4196L6.96565 13.6932L6.76893 14.2152C6.7055 14.3678 6.6629 14.528 6.6423 14.6916C6.60553 14.9092 6.55649 15.1149 6.50684 15.3299L6.41407 15.957C6.38001 16.1618 6.35822 16.3784 6.33554 16.5802C6.25004 17.4071 6.22012 18.2254 6.21804 19.0452C6.21596 19.8651 6.22797 20.6692 6.26994 21.4714C6.28239 21.8748 6.3098 22.2772 6.33648 22.6768L6.38704 23.293L6.39971 23.3408L6.40344 23.3549L6.41314 23.3915L6.38525 23.7001C6.19835 25.2939 6.06154 26.9005 5.97484 28.52L5.96292 28.6015L5.96612 28.694C5.92101 29.5584 5.89298 30.4183 5.90792 31.2909C5.91607 31.5057 5.92064 31.7183 5.92968 31.9479L5.93921 32.2827L5.96656 32.6159C6.00024 33.0814 6.0668 33.5439 6.16574 33.9999L6.21869 34.1998C6.23584 34.2645 6.25747 34.3461 6.27462 34.4109L6.29625 34.4925L6.3313 34.6248L6.50356 35.275C6.55949 35.4861 6.64537 35.6953 6.72285 35.9187C6.79251 36.1337 6.87571 36.3441 6.97196 36.5486L7.2473 37.1624C7.35446 37.36 7.47314 37.5665 7.57956 37.7612C7.68597 37.9559 7.81949 38.1495 7.94088 38.3432C8.06227 38.537 8.19579 38.7305 8.34416 38.9111C9.47989 40.3935 10.9526 41.5891 12.6438 42.4018C14.3274 43.2085 16.1333 43.7392 17.9914 43.9731C19.172 44.1364 20.3644 44.2042 21.5571 44.1761C21.5918 44.1663 21.6248 44.1515 21.6551 44.1321C22.5068 44.0932 23.3583 44.0423 24.2116 43.9518C26.0824 43.7566 27.9363 43.4215 29.7575 42.9493C30.2072 42.8301 30.6609 42.6919 31.1256 42.5718C31.3533 42.5114 31.5764 42.4222 31.8026 42.3563L32.141 42.2425L32.4794 42.1287C33.373 41.8142 34.2492 41.4524 35.1041 41.0448L35.874 40.663L36.6309 40.2547C36.6309 40.2547 36.7132 40.2088 36.8542 40.1202C36.9952 40.0316 37.1885 39.8991 37.4108 39.7378C37.522 39.6631 37.648 39.5755 37.7862 39.4877C37.9243 39.3999 38.0372 39.2856 38.1895 39.182C38.3417 39.0784 38.4667 38.964 38.6219 38.8596L39.0354 38.5121L39.4525 38.1666C39.5889 38.0492 39.7138 37.9227 39.8381 37.8054C40.0824 37.578 40.3083 37.3615 40.4875 37.1755C40.6718 36.9911 40.8461 36.7971 41.0097 36.5943C41.1998 36.3693 41.3657 36.1446 41.5138 35.9336C41.5969 35.8333 41.662 35.7227 41.7395 35.6359C41.8171 35.549 41.8615 35.4409 41.9032 35.3455C41.8995 35.3314 41.8995 35.3314 41.9175 35.3417C42.0426 35.2393 42.1648 35.1256 42.3039 34.9953C42.7515 34.597 43.1752 34.1729 43.5726 33.7254C43.9706 33.2882 44.3408 32.8269 44.6809 32.3443C44.995 31.9087 45.2501 31.5037 45.4281 31.2095C45.606 30.9154 45.696 30.7379 45.696 30.7379C45.9566 30.1847 46.1802 29.6153 46.3653 29.0334L46.4192 28.8805C46.4941 28.6227 46.5853 28.3576 46.6329 28.0889C46.7673 27.5582 46.8646 27.0191 46.9242 26.4755C47.0479 25.3895 47.0166 24.2924 46.8314 23.2167C46.8114 23.0835 46.7792 22.9504 46.747 22.8174L46.6426 22.4233C46.5735 22.1283 46.4801 21.879 46.4156 21.6129ZM9.49756 21.7549C8.95929 20.5511 9.06363 17.2431 9.06363 17.2431L11.7709 19.8393C10.796 20.169 9.98285 20.8542 9.49756 21.7549V21.7549ZM27.6317 12.2091L27.0783 8.74096C28.0261 8.61637 30.6606 11.2138 30.6606 11.2138C29.7076 11.3187 27.628 12.195 27.628 12.195L27.6317 12.2091Z" fill="#FFFBBC"/>
<path d="M45.8098 20.1198C45.3531 19.1591 44.7992 18.2472 44.1567 17.3979C42.9344 15.8109 41.5037 14.393 39.9022 13.1813C38.3046 11.963 36.5943 10.8963 34.7939 9.9953C34.3746 9.78105 33.9548 9.57599 33.5059 9.38768L33.2031 9.245L32.7731 8.77154C32.0898 8.107 31.3556 7.49587 30.577 6.94357C29.7952 6.40142 28.9759 5.91391 28.1253 5.48455C27.6903 5.26844 27.2563 5.06716 26.8102 4.87809C26.5929 4.78205 26.3628 4.6954 26.1299 4.60951C25.897 4.52363 25.697 4.44708 25.4814 4.38069L25.1498 4.27877L24.9916 4.23334L24.9072 4.21354C24.8986 4.20603 24.8878 4.20149 24.8763 4.20062L24.8502 4.22863C24.6961 4.35982 24.529 4.47639 24.3778 4.60682L24.1416 4.79592C24.0687 4.86293 24.0002 4.93441 23.9364 5.00994C23.8631 5.08191 23.7937 5.15761 23.7284 5.23674C23.7032 5.27956 23.6743 5.30831 23.6483 5.34832L23.5943 5.43191C23.5114 5.54426 23.4583 5.64267 23.3761 5.75783C23.1363 6.15741 22.9358 6.57873 22.7773 7.01593C22.4835 7.82121 22.2533 8.64761 22.089 9.48763C21.9213 10.2981 21.7965 11.1164 21.7151 11.9393L21.6835 12.291L21.0756 12.434C19.3371 12.8947 17.6795 13.6184 16.1614 14.5795C15.9651 14.7007 15.7859 14.8175 15.6038 14.935L15.1853 15.2176L15.1571 15.1919L14.8805 15.0333L14.5927 14.8896L14.0255 14.5881C13.8381 14.4901 13.6488 14.4078 13.4471 14.3136L13.1593 14.1699L12.8538 14.04C12.0384 13.6829 11.1903 13.4033 10.3207 13.205C9.85999 13.0966 9.39092 13.0254 8.91812 12.9923L8.66248 12.9817C8.56123 12.9764 8.45971 12.9771 8.35848 12.9839C8.15357 12.9865 7.94929 13.0083 7.74834 13.0492C7.55367 13.0773 7.36138 13.1202 7.17315 13.1775L7.1333 13.188C7.13251 13.1987 7.12751 13.2087 7.11936 13.2158L7.10728 13.2853L7.05534 13.4225L6.96639 13.6961L6.76966 14.2182C6.70624 14.3708 6.66364 14.531 6.64303 14.6945C6.60626 14.9121 6.55722 15.1179 6.50757 15.3328L6.41481 15.9599C6.38074 16.1647 6.35895 16.3813 6.33627 16.5831C6.25077 17.4101 6.22085 18.2283 6.21877 19.0482C6.21669 19.8681 6.22871 20.6722 6.27068 21.4744C6.28312 21.8777 6.31054 22.2801 6.33721 22.6797L6.38777 23.2959L6.40044 23.3437L6.40417 23.3578L6.41387 23.3944L6.38599 23.703C6.19908 25.2968 6.06227 26.9035 5.97557 28.5229L5.96366 28.6044L5.96685 28.6969C5.92175 29.5614 5.89371 30.4213 5.90865 31.2939C5.91681 31.5086 5.92137 31.7213 5.93041 31.9508L5.93994 32.2856L5.96729 32.6188C6.00097 33.0844 6.06753 33.5469 6.16647 34.0029L6.21942 34.2027C6.23657 34.2674 6.2582 34.3491 6.27535 34.4138L6.29698 34.4954L6.33203 34.6277L6.50429 35.2779C6.56022 35.489 6.6461 35.6982 6.72358 35.9217C6.79324 36.1366 6.87645 36.347 6.9727 36.5515L7.24803 37.1654C7.35519 37.3629 7.47387 37.5694 7.58029 37.7641C7.6867 37.9588 7.82022 38.1524 7.94161 38.3461C8.063 38.5399 8.19653 38.7335 8.34489 38.9141C9.48062 40.3964 10.9534 41.592 12.6446 42.4047C14.3282 43.2115 16.1341 43.7421 17.9922 43.9761C19.1727 44.1393 20.3652 44.2072 21.5579 44.179C21.5925 44.1692 21.6255 44.1544 21.6558 44.135C22.5075 44.0961 23.3591 44.0452 24.2123 43.9547C26.0831 43.7595 27.937 43.4244 29.7582 42.9522C30.2079 42.8331 30.6617 42.6948 31.1263 42.5747C31.354 42.5144 31.5771 42.4251 31.8033 42.3592L32.1417 42.2454L32.4801 42.1317C33.3738 41.8171 34.2499 41.4553 35.1048 41.0477L35.8748 40.666L36.6316 40.2576C36.6316 40.2576 36.7139 40.2117 36.8549 40.1231C36.9959 40.0346 37.1892 39.902 37.4115 39.7407C37.5227 39.6661 37.6487 39.5784 37.7869 39.4906C37.925 39.4028 38.0379 39.2886 38.1902 39.185C38.3424 39.0814 38.4675 38.9669 38.6226 38.8626L39.0361 38.515L39.4532 38.1696C39.5896 38.0521 39.7145 37.9256 39.8388 37.8084C40.0831 37.581 40.309 37.3645 40.4882 37.1784C40.6725 36.994 40.8468 36.8 41.0104 36.5973C41.2005 36.3722 41.3664 36.1475 41.5146 35.9365C41.5976 35.8362 41.6628 35.7256 41.7403 35.6388C41.8178 35.552 41.8622 35.4438 41.904 35.3484C41.9002 35.3343 41.9003 35.3343 41.9182 35.3446C42.0434 35.2422 42.1655 35.1285 42.3046 34.9983C42.7523 34.5999 43.1759 34.1758 43.5734 33.7283C43.9714 33.2911 44.3415 32.8299 44.6816 32.3472C44.9957 31.9116 45.2509 31.5066 45.4288 31.2125C45.6067 30.9183 45.6967 30.7409 45.6967 30.7409C45.9574 30.1877 46.181 29.6183 46.366 29.0363L46.4199 28.8835C46.4948 28.6257 46.586 28.3605 46.6336 28.0919C46.768 27.5611 46.8654 27.022 46.9249 26.4784C47.0486 25.3924 47.0174 24.2954 46.8322 23.2196C46.8121 23.0864 46.7799 22.9533 46.7477 22.8203L46.6433 22.4262C46.5732 22.1617 46.4825 21.9116 46.4189 21.6483C46.2466 21.1272 46.0432 20.6168 45.8098 20.1198V20.1198ZM44.6772 23.2484C44.7077 23.357 44.7308 23.4676 44.7466 23.5794C44.9533 24.4699 44.9972 25.3907 44.8761 26.2983C44.8303 26.7603 44.7479 27.2183 44.6298 27.6679C44.5789 27.9013 44.5029 28.1202 44.4392 28.351L44.3992 28.476C44.3203 28.6957 44.2556 28.8996 44.1646 29.1195L44.0476 29.4367L43.9149 29.752C43.9149 29.752 43.888 29.8344 43.8359 29.9597C43.7838 30.085 43.7031 30.275 43.613 30.5097C43.4246 30.9482 43.1338 31.5404 42.8199 32.1146C42.19 33.2665 41.3804 34.3033 41.4809 34.2345C41.1539 34.7248 40.8427 35.1597 40.6239 35.4948L40.2766 35.7705C40.0544 35.9318 39.8321 36.0931 39.5941 36.2526L39.4279 36.384L39.2487 36.5007L38.8853 36.7386C38.7584 36.8114 38.6473 36.898 38.524 36.9729C38.4006 37.0477 38.2602 37.1271 38.1597 37.1959C37.9393 37.3435 37.7107 37.4785 37.4749 37.6003C37.2515 37.7227 37.0423 37.8414 36.8601 37.9469C36.6779 38.0524 36.4967 38.1275 36.3556 38.2041C36.2145 38.2806 36.1051 38.3277 36.0342 38.3705C35.9989 38.3945 35.9617 38.4154 35.9229 38.4332L35.125 38.8705L34.3159 39.2656C31.0954 40.7183 27.6555 41.6297 24.1382 41.9621C23.0334 42.0801 21.9244 42.148 20.8397 42.1583C20.8397 42.1583 20.8113 42.1658 20.797 42.1696C20.0043 42.1497 19.2135 42.0888 18.4277 41.987C16.7916 41.7732 15.2007 41.3075 13.7124 40.6066C12.2959 39.9191 11.0601 38.9169 10.1007 37.6777C9.98215 37.5297 9.87289 37.3745 9.77355 37.2131C9.65928 37.0589 9.55879 36.895 9.47322 36.7234L9.19837 36.2149L8.95334 35.6924C8.86292 35.5236 8.81371 35.3378 8.73589 35.1475C8.65807 34.9573 8.59625 34.7929 8.54689 34.5952L8.39775 34.0322L8.35524 33.8718L8.34778 33.8436L8.3366 33.8014L8.31497 33.7198C8.31497 33.7198 8.30453 33.6804 8.3008 33.6663C8.29409 33.641 8.28961 33.6241 8.27917 33.5847L8.25084 33.4777C8.17024 33.1143 8.12019 32.7447 8.10121 32.3727L8.07787 32.0777L8.06592 31.7796C8.06149 31.579 8.05422 31.3791 8.0477 31.182C8.03568 30.3779 8.05259 29.545 8.09676 28.723L8.10779 28.6267L8.11957 28.5332C8.2107 26.9688 8.34417 25.4032 8.51997 23.8365L8.5507 23.5271L8.54137 23.2735C8.53743 23.1782 8.52109 23.059 8.52007 23.0322L8.47141 22.4577C8.44487 22.0701 8.41834 21.6825 8.40678 21.294C8.36509 20.5158 8.35409 19.7386 8.3582 18.9724C8.35179 18.2035 8.38806 17.4347 8.46684 16.6693C8.48966 16.4795 8.5125 16.2897 8.53247 16.1007L8.61393 15.5459C8.63675 15.3561 8.68755 15.18 8.72548 15.0013L8.75224 14.9068L8.8063 14.8925C9.16834 14.9162 9.52741 14.9712 9.8794 15.057C10.623 15.233 11.3496 15.4718 12.0514 15.7708L12.3268 15.8906L12.5865 16.0086L13.1068 16.2593L13.6281 16.5369L13.8886 16.6697L14.1493 16.8145L15.1788 17.4123L15.2812 17.4996L15.3544 17.5344L15.4103 17.4925L15.6643 17.3017C15.8334 17.1696 15.9995 17.0261 16.1694 16.9088L16.4272 16.7321L16.5532 16.6445L16.814 16.479C16.9811 16.3624 17.1483 16.2579 17.3155 16.1533C18.6439 15.3088 20.0915 14.6653 21.6101 14.2444L21.8991 14.1859L22.1097 14.1301L22.1354 14.1233C22.1638 14.1157 22.1923 14.1082 22.1781 14.112L22.2179 14.1014L23.4668 13.9061L23.6221 13.883L23.6124 13.8464L23.6243 13.7649L23.6408 13.4593C23.6485 13.2585 23.6704 13.0539 23.6766 12.8474L23.6963 12.5651L23.7161 12.3068L23.7508 12.0235C23.8391 11.253 23.9557 10.4942 24.1009 9.74681C24.2448 9.00976 24.4446 8.28418 24.6985 7.57627C24.8194 7.25227 24.9664 6.93831 25.1382 6.63745C25.1802 6.56608 25.2201 6.49827 25.2601 6.44248L25.2882 6.3989C25.4896 6.48107 25.6902 6.54841 25.8919 6.6426C26.2977 6.80618 26.6866 6.99832 27.0785 7.18971C27.8482 7.57829 28.5898 8.0189 29.298 8.50841C29.9918 8.99351 30.6443 9.53387 31.2491 10.1242L31.7215 10.6195L31.8371 10.7456L31.8971 10.811C31.9008 10.8251 31.9291 10.8628 31.9554 10.8588L32.2731 10.9885L32.5907 11.1182C32.9938 11.2946 33.3856 11.486 33.7784 11.6922C35.4639 12.537 37.0641 13.5381 38.5576 14.6822C40.0231 15.7896 41.3339 17.084 42.4561 18.5323C43.0233 19.2842 43.5126 20.0911 43.9165 20.9407C44.114 21.3583 44.2848 21.7879 44.4279 22.227C44.4876 22.4522 44.5706 22.6621 44.621 22.8867L44.6772 23.2484Z" fill="#484848"/>
<path d="M11.7658 19.8197L9.05854 17.2235C9.05854 17.2235 8.9542 20.5315 9.49246 21.7354C9.97776 20.8346 10.7909 20.1494 11.7658 19.8197V19.8197Z" fill="#484848"/>
<path d="M27.0739 8.72421L27.6273 12.1923C27.6273 12.1923 29.7069 11.316 30.6554 11.1942C30.6562 11.197 28.0217 8.59962 27.0739 8.72421Z" fill="#484848"/>
<path d="M16.1845 24.5201L16.7591 25.5944L20.0715 23.8225L19.4969 22.7482L16.1845 24.5201ZM16.6483 30.6392L17.2133 31.6956L24.9124 27.5773L24.3474 26.5209L16.6483 30.6392ZM13.4329 23.4013L13.9884 24.4397L16.4145 23.142L15.859 22.1035L13.4329 23.4013ZM15.4472 22.3238L15.5621 22.5386C15.7808 24.0452 15.156 25.9338 14.1148 27.2161C14.4942 27.301 15.078 27.5529 15.3965 27.7395C16.5472 26.1453 17.2321 24.1324 16.9375 22.0102L15.8571 22.0354L15.671 22.2041L15.4472 22.3238ZM17.6395 20.7826L16.7024 21.7214C18.4038 23.1372 20.3201 23.9428 22.415 23.8125C22.4258 23.3807 22.5426 22.6734 22.704 22.2647C20.8212 22.5119 18.9739 21.8996 17.6395 20.7826ZM13.8631 25.497C14.3367 25.543 14.9711 25.6527 15.3063 25.7843L15.619 24.6038C15.2659 24.4818 14.6417 24.4127 14.1783 24.4073L13.8631 25.497ZM18.8052 20.2282C18.6799 20.7903 18.384 21.5934 18.1302 22.1091L19.221 22.2971C19.516 21.7938 19.8597 21.0803 20.1497 20.3956L18.8052 20.2282ZM20.3723 20.7255C20.2345 21.3289 19.9083 22.1827 19.6193 22.7403L20.719 22.9235C21.0313 22.388 21.3958 21.6058 21.6756 20.8804L20.3723 20.7255ZM17.7348 26.8802L20.4832 25.41L20.7897 25.983L18.0412 27.4531L17.7348 26.8802ZM15.9266 26.5348L17.3249 29.1489L22.6784 26.2852L21.2801 23.6711L15.9266 26.5348ZM17.8968 28.9697C18.2524 29.1824 18.6661 29.5253 18.8641 29.7879L19.9307 28.7683C19.7058 28.5201 19.2975 28.2089 18.9294 28.0373L17.8968 28.9697ZM20.8494 26.9988C20.9275 27.36 20.9694 27.8903 20.9752 28.2671L22.2504 27.8959C22.2685 27.5638 22.256 27.1099 22.2458 26.5742L20.8494 26.9988Z" fill="#B50000"/>
<path d="M30.9946 18.8432C30.9802 19.3114 30.8766 20.0002 30.7571 20.4441L31.8501 20.5502C32.0108 20.1188 32.1713 19.5148 32.3366 18.9198L30.9946 18.8432ZM27.3741 21.6319C27.8873 21.7949 28.5129 22.082 28.8244 22.3414L29.4077 21.2579C29.0694 21.0129 28.4402 20.7622 27.9235 20.6357L27.3741 21.6319ZM25.4273 16.9162L25.9924 17.9726L28.5528 16.603L29.7164 18.7785L30.9161 18.1368L29.1873 14.9049L25.4273 16.9162ZM26.3659 18.1758L26.8879 19.1516L29.9138 17.533L29.3918 16.5572L26.3659 18.1758ZM26.4186 19.7596L27.0028 20.8518L31.8013 18.285L31.2171 17.1928L26.4186 19.7596ZM28.4798 19.3939L30.5246 23.2166C30.5724 23.3062 30.56 23.3474 30.4704 23.3953C30.3899 23.4384 30.1392 23.5725 29.9374 23.6689C30.2441 23.9193 30.6274 24.313 30.8267 24.6209C31.3191 24.3576 31.6855 24.1385 31.8941 23.7967C32.1117 23.45 32.0115 23.1121 31.7386 22.6018L29.6794 18.7522L28.4798 19.3939ZM28.2494 23.8925L29.3957 24.6149C29.7199 24.0155 30.0684 23.311 30.3638 22.6578L29.4479 21.8927C29.0147 22.6541 28.5677 23.4113 28.2494 23.8925ZM30.0644 19.5365L29.6882 20.5553C30.511 21.4047 31.9463 22.5597 33.4037 22.7013C33.4056 22.2743 33.5313 21.5622 33.6664 21.1906C32.2188 21.2395 30.8866 20.3633 30.0644 19.5365ZM23.1058 20.6911L23.6804 21.7654L26.384 20.3192L25.8094 19.2449L23.1058 20.6911ZM23.5361 22.4644L24.1204 23.5566L27.388 21.8087L26.8038 20.7165L23.5361 22.4644ZM24.3915 23.9988C24.7616 24.411 25.2084 24.9665 25.4466 25.3687L26.1726 24.681C25.9124 24.3021 25.4751 23.7645 25.087 23.3619L24.3915 23.9988ZM25.2436 25.9148L26.1127 26.9583C26.9301 26.2908 27.9873 25.4259 28.9598 24.6179L28.2956 23.5914C27.1972 24.4438 26.0408 25.3387 25.2436 25.9148ZM26.7187 22.4085C26.8894 22.8353 27.0753 23.4843 27.1738 23.9267L28.0539 23.7207C27.9835 23.3093 27.849 22.7135 27.7467 22.1349L26.7187 22.4085ZM24.0656 20.7419L26.7377 25.7374L27.7376 24.9377L25.1757 20.1481L24.0656 20.7419ZM22.58 18.0939C22.6802 18.9269 22.6188 19.996 22.224 21.0016C22.5567 21.0424 23.1489 21.2668 23.4489 21.4402C23.8994 20.1515 23.9391 18.9558 23.9291 18.0976L23.7519 17.7663L23.3849 17.9627L23.2604 17.7299L22.58 18.0939ZM22.7322 18.0125L23.2254 18.9346L23.4403 18.8196C24.1159 18.9418 25.1317 19.3772 25.6445 19.6901L25.9318 18.2468C25.3605 17.9537 24.3676 17.6903 23.6185 17.5384L22.7322 18.0125Z" fill="#B50000"/>
<path d="M18.4359 34.2173L19.1494 35.5513L27.0097 31.3467L26.2961 30.0128L18.4359 34.2173ZM24.4481 35.1464C25.8136 35.4177 27.733 35.8417 28.6939 36.2604L29.2766 34.6591C28.2441 34.2788 26.2962 33.9736 25.0137 33.75L24.4481 35.1464ZM22.5267 32.6739C22.6569 34.5962 22.0461 37.1566 20.6127 39.0402C21.0482 39.1872 21.7522 39.513 22.1448 39.752C23.6472 37.5667 24.2584 34.8564 24.2589 32.4036L22.5267 32.6739ZM23.1918 35.3809L25.8783 40.4032L27.3107 39.637L23.858 33.1823L23.1918 35.3809Z" fill="#B50000"/>
<path d="M29.4571 33.7911L30.0126 34.8296L38.2757 30.4096L37.7202 29.3711L29.4571 33.7911ZM27.1628 29.1577L27.7614 30.2768L35.6665 26.0483L35.0679 24.9292L27.1628 29.1577ZM31.935 31.4064C31.8988 32.5656 31.7502 34.0959 31.5824 35.0953L33.0458 34.796C33.1909 33.7973 33.3271 32.3083 33.3924 31.0528L31.935 31.4064ZM35.1288 31.2639C35.3225 33.348 33.8859 34.623 31.029 36.2778C31.3744 36.45 31.8156 36.8012 32.1063 37.1293C35.2571 35.0985 36.7782 33.594 36.5539 30.8931L35.1288 31.2639ZM32.3579 34.8877C34.6756 34.2697 37.0711 33.8403 38.6064 33.6754L38.8202 32.2024C37.2599 32.4498 34.7403 32.9915 32.5272 33.6112L32.3579 34.8877ZM29.7072 28.3609L31.3258 31.3868L32.5523 30.7308L30.9337 27.7048L29.7072 28.3609ZM31.7036 27.293L33.3222 30.3189L34.5487 29.6629L32.9301 26.6369L31.7036 27.293ZM30.1056 30.7845L34.8683 28.2369L35.2035 28.8636L30.4408 31.4112L30.1056 30.7845ZM28.3469 30.4242L29.7596 33.0651L37.0379 29.1719L35.6252 26.5309L28.3469 30.4242Z" fill="#B50000"/>
</g>
<defs>
<clipPath id="clip0_3830_12715">
<rect width="42.1123" height="38.6978" fill="white" transform="translate(0 10.7854) rotate(-14.8393)"/>
</clipPath>
</defs>
</svg>
