<svg width="232" height="41" viewBox="0 0 232 41" fill="none" xmlns="http://www.w3.org/2000/svg">
<path d="M29.4804 28.7498L29.3102 28.486L27.4124 25.4648L26.6209 24.2223L19.9061 13.5671L19.8976 13.5842L19.8891 13.5671L13.1743 24.2223L12.3829 25.4648L10.485 28.486L10.3148 28.7498L7.81274 32.7242L9.77867 38.8943L14.3743 30.7583L14.4594 30.5966L16.1956 27.5243L16.536 26.9371L19.8891 20.9968L19.8976 21.0138L19.9061 20.9968L23.2593 26.9371L23.5997 27.5243L25.3358 30.5966L25.4209 30.7583L30.0166 38.8943L31.9825 32.7242L29.4804 28.7498Z" fill="#B81177"/>
<path d="M12.5359 23.7031L0 13.5671L2.44251 24.8606L5.48075 38.8943H9.77855L6.12755 27.4648L9.34451 28.869L12.5359 23.7031Z" fill="#E15499"/>
<path d="M27.259 23.7031L30.4505 28.869L33.6674 27.4648L30.0164 38.8943H34.3142L37.3525 24.8606L39.795 13.5671L27.259 23.7031Z" fill="#E15499"/>
<path d="M22.6124 27.4562L19.8975 29.5412L17.1827 27.4562L14.97 31.337L19.889 33.4816H19.8975H19.9061L24.8166 31.337L22.6124 27.4562Z" fill="#E15499"/>
<path d="M55.7523 36.1199H55.497C55.3201 36.089 55.1523 36.0196 55.0052 35.9167C54.8581 35.8137 54.7355 35.6797 54.6459 35.5242C52.5864 32.6902 50.6119 30.0264 48.8077 27.7115C48.6891 27.571 48.6043 27.405 48.5601 27.2264C48.5158 27.0479 48.5132 26.8615 48.5524 26.6818C48.5833 26.505 48.6527 26.3371 48.7556 26.19C48.8586 26.0429 48.9926 25.9203 49.1481 25.8307C49.3959 25.6533 49.6945 25.5608 49.9992 25.5669H50.2545C50.6103 25.6519 50.9367 25.8312 51.1992 26.086L53.2587 28.7498H53.4374C55.26 27.8742 56.9388 26.7263 58.4161 25.3456C59.7025 24.1515 60.7256 22.7023 61.4203 21.0904H46.3056C46.1462 21.1049 45.9856 21.0808 45.8374 21.0201C45.6893 20.9593 45.5579 20.8638 45.4546 20.7415C45.3399 20.6325 45.2501 20.5 45.1913 20.3532C45.1326 20.2063 45.1062 20.0484 45.1142 19.8904C45.137 19.5784 45.256 19.2811 45.4546 19.0394C45.6822 18.817 45.9874 18.6918 46.3056 18.6904H63.0798C63.3936 18.7123 63.692 18.8346 63.9309 19.0394C64.0485 19.1465 64.1408 19.2784 64.2012 19.4256C64.2615 19.5728 64.2884 19.7316 64.2798 19.8904C64.3421 20.6536 64.2225 21.4207 63.9309 22.1287C63.1399 23.9988 61.9824 25.6917 60.5267 27.1073C58.8608 28.7184 56.9471 30.0516 54.8587 31.0562V31.1413C55.8884 32.5966 56.5608 33.5412 56.9182 33.9753C57.0973 34.2867 57.1578 34.6525 57.0884 35.005C57.0392 35.1859 56.9534 35.3548 56.8363 35.5012C56.7192 35.6475 56.5733 35.7684 56.4076 35.8561C56.3428 35.9662 56.2434 36.0518 56.1249 36.0996C56.0063 36.1473 55.8753 36.1545 55.7523 36.1199V36.1199Z" fill="url(#paint0_linear_3769_12732)"/>
<path d="M63.0797 18.8606C63.2383 18.8543 63.3964 18.8822 63.5432 18.9424C63.6901 19.0027 63.8222 19.0937 63.9308 19.2095C64.0475 19.3006 64.1403 19.4186 64.2011 19.5536C64.2619 19.6885 64.2889 19.8363 64.2797 19.984C64.2923 20.714 64.1741 21.4403 63.9308 22.1286C63.1398 23.9988 61.9823 25.6916 60.5266 27.1073C58.8907 28.716 57.0054 30.0495 54.9437 31.0561C54.8586 31.0561 54.8586 31.1412 54.8586 31.2263C54.8586 31.2375 54.8608 31.2486 54.8651 31.2589C54.8693 31.2692 54.8756 31.2786 54.8835 31.2865C54.8914 31.2944 54.9008 31.3007 54.9111 31.305C54.9215 31.3092 54.9325 31.3114 54.9437 31.3114C55.9735 32.7753 56.6458 33.7199 57.0032 34.1454C57.097 34.2818 57.1607 34.4366 57.1901 34.5994C57.2194 34.7623 57.2137 34.9296 57.1734 35.0901C57.1407 35.2564 57.0698 35.4129 56.9665 35.5472C56.8631 35.6816 56.7301 35.7902 56.5777 35.8645C56.3259 35.9347 56.0643 35.9635 55.8033 35.9496H55.5479C55.2106 35.8858 54.9081 35.7012 54.6969 35.4305C52.6373 32.605 50.748 29.9413 48.8587 27.5328C48.7674 27.4133 48.7046 27.2745 48.6751 27.127C48.6456 26.9795 48.6501 26.8272 48.6885 26.6817C48.7515 26.367 48.9347 26.0892 49.1991 25.9073C49.4256 25.7449 49.6951 25.6531 49.9736 25.6435H50.2289C50.5635 25.7143 50.8638 25.8974 51.0799 26.1626L53.1395 28.8264C53.1395 28.9115 53.2246 28.9115 53.3097 28.9115H53.4884C55.311 28.0359 56.9898 26.888 58.467 25.5073C59.7809 24.3186 60.833 22.8695 61.5563 21.2521C61.5563 21.1669 61.5563 21.0818 61.4712 21.0818H46.3055C46.1469 21.0887 45.9887 21.061 45.8417 21.0008C45.6948 20.9406 45.5627 20.8491 45.4545 20.7329C45.3416 20.6409 45.252 20.5237 45.1929 20.3906C45.1337 20.2575 45.1067 20.1124 45.1141 19.967C45.1356 19.6775 45.2557 19.4041 45.4545 19.1925C45.5627 19.0763 45.6948 18.9849 45.8417 18.9246C45.9887 18.8644 46.1469 18.8367 46.3055 18.8436H63.0797M63.0797 18.7585H46.3055C45.9636 18.7814 45.6356 18.9025 45.3609 19.1074C45.1235 19.3429 44.9831 19.6589 44.9673 19.993C44.9515 20.327 45.0616 20.6548 45.2758 20.9116L45.3609 20.9967C45.61 21.2538 45.9479 21.406 46.3055 21.4222H61.1649C60.4688 22.9474 59.4393 24.2969 58.1522 25.3711C56.6779 26.7556 54.9986 27.9039 53.1735 28.7753V28.7753L51.114 26.1115C50.8621 25.7841 50.4929 25.5674 50.0842 25.5073H49.8289C49.5242 25.5011 49.2256 25.5937 48.9778 25.7711C48.8225 25.862 48.6883 25.9848 48.5841 26.1316C48.4799 26.2783 48.4082 26.4456 48.3736 26.6222C48.3276 26.8022 48.3276 26.9909 48.3737 27.1708C48.4198 27.3508 48.5105 27.5162 48.6374 27.6519C50.4416 29.9753 52.4161 32.6391 54.4756 35.4645C54.5638 35.6221 54.6859 35.758 54.8331 35.8625C54.9803 35.967 55.1489 36.0375 55.3267 36.0688H55.6671C55.9704 36.0739 56.2678 35.9847 56.5181 35.8135C56.6956 35.7166 56.8495 35.5817 56.9687 35.4184C57.0878 35.2551 57.1694 35.0674 57.2075 34.8688C57.2534 34.6753 57.2535 34.4737 57.2077 34.2801C57.1619 34.0866 57.0714 33.9064 56.9437 33.754C56.6032 33.2348 55.9139 32.2901 54.8841 30.9199C56.9445 29.911 58.8294 28.5777 60.467 26.9711C61.9249 25.5244 63.0818 23.8034 63.8712 21.9073C64.1628 21.1993 64.2824 20.4323 64.2201 19.6691C64.2043 19.3096 64.0485 18.9706 63.7861 18.7244C63.6713 18.5911 63.524 18.4897 63.3585 18.4301C63.193 18.3705 63.0149 18.3546 62.8414 18.384L63.0797 18.7585Z" fill="url(#paint1_linear_3769_12732)"/>
<path d="M86.8324 35.5241C86.5679 35.5135 86.3066 35.4618 86.0579 35.3709C85.8904 35.2845 85.7426 35.1643 85.6239 35.0178C85.5053 34.8713 85.4183 34.7017 85.3686 34.5199C84.1632 29.776 82.6159 25.1256 80.7389 20.6052C80.6876 20.4503 80.6687 20.2866 80.6834 20.1241C80.698 19.9616 80.7459 19.8038 80.824 19.6606C80.9656 19.45 81.1569 19.2777 81.3811 19.159C81.6053 19.0402 81.8554 18.9786 82.1091 18.9797C82.3992 19.0067 82.6776 19.1078 82.9175 19.2732C83.1574 19.4386 83.3508 19.6628 83.4793 19.9244C85.4289 24.4908 87.0361 29.1959 88.2877 34.0008C88.3433 34.1736 88.3569 34.3571 88.3273 34.5362C88.2977 34.7154 88.2258 34.8848 88.1175 35.0305C88.0189 35.1987 87.8819 35.3411 87.7177 35.4461C87.5535 35.5512 87.3668 35.6158 87.1728 35.6348C87.0877 35.5241 87.0026 35.5241 86.8324 35.5241ZM69.4029 35.2603C69.1651 35.2431 68.932 35.1855 68.7136 35.0901C68.4016 34.95 68.1562 34.6942 68.0292 34.3766C67.9021 34.0591 67.9034 33.7046 68.0327 33.388V33.3029C70.2507 29.2075 71.7422 24.7588 72.4412 20.1542C72.5224 19.7969 72.7022 19.4696 72.9603 19.2095C73.2355 19.0055 73.5632 18.8844 73.905 18.8606H74.0752C74.4338 18.8799 74.7716 19.0351 75.0198 19.2946C75.1363 19.4217 75.2263 19.5706 75.2848 19.7328C75.3432 19.895 75.3689 20.0671 75.3602 20.2393C74.7404 25.212 73.1716 30.0195 70.7391 34.4007C70.654 34.5692 70.5341 34.7178 70.3874 34.8366C70.2407 34.9554 70.0705 35.0418 69.888 35.0901C69.7394 35.1789 69.5744 35.2368 69.4029 35.2603V35.2603Z" fill="url(#paint2_linear_3769_12732)"/>
<path d="M82.1091 18.9542C82.3142 18.941 82.5199 18.97 82.7134 19.0393C83.0175 19.1731 83.2604 19.416 83.3942 19.7201C85.3425 24.2899 86.9497 28.9978 88.2026 33.805C88.2408 33.9657 88.2454 34.1325 88.2161 34.2951C88.1868 34.4576 88.1243 34.6124 88.0324 34.7497C87.8258 35.0403 87.5252 35.2507 87.1814 35.3454H86.841C86.6015 35.3396 86.3662 35.2815 86.1516 35.1752C85.9984 35.1019 85.8647 34.9937 85.7612 34.8591C85.6577 34.7246 85.5874 34.5675 85.5559 34.4007C84.3535 29.6619 82.8148 25.0147 80.9517 20.4946C80.9041 20.3549 80.887 20.2067 80.9017 20.0598C80.9164 19.913 80.9625 19.771 81.0368 19.6435C81.1987 19.3778 81.4398 19.1695 81.7262 19.0478C81.8593 18.9862 82.0051 18.957 82.1517 18.9627M73.9986 18.9627H74.1688C74.332 18.9729 74.4915 19.0158 74.6377 19.0889C74.7839 19.162 74.9139 19.2638 75.0199 19.3882C75.1367 19.4928 75.2224 19.6276 75.2674 19.7778C75.3125 19.928 75.3152 20.0877 75.2752 20.2393C74.6896 25.1834 73.1429 29.9652 70.7221 34.3156C70.5575 34.6297 70.2858 34.8743 69.9562 35.005C69.8215 35.0711 69.6718 35.1005 69.5221 35.0901C69.3119 35.0713 69.107 35.0136 68.9179 34.9199C68.6289 34.7609 68.3924 34.5214 68.237 34.2305C68.1858 34.0756 68.1669 33.9119 68.1815 33.7494C68.1962 33.5869 68.244 33.4291 68.3221 33.2859C70.5932 29.2227 72.0773 24.7676 72.6965 20.1542C72.713 19.9823 72.7682 19.8163 72.8582 19.6689C72.9481 19.5215 73.0703 19.3964 73.2157 19.3031C73.3152 19.1972 73.4351 19.1125 73.5682 19.054C73.7013 18.9955 73.8448 18.9645 73.9901 18.9627M82.1432 18.6989C81.9686 18.6855 81.7933 18.7147 81.6325 18.784C81.457 18.8309 81.2928 18.9127 81.1496 19.0245C81.0064 19.1363 80.8871 19.2757 80.799 19.4346C80.7108 19.5934 80.6556 19.7684 80.6365 19.949C80.6174 20.1297 80.6349 20.3123 80.6879 20.4861C82.522 25.0195 84.0683 29.6641 85.3176 34.3922C85.3527 34.5919 85.4331 34.7808 85.5526 34.9446C85.6721 35.1083 85.8275 35.2425 86.0069 35.3369C86.2547 35.5143 86.5533 35.6069 86.858 35.6007H87.1984C87.6161 35.5085 87.9837 35.2624 88.2281 34.9114C88.3406 34.7513 88.4145 34.5673 88.444 34.3739C88.4736 34.1805 88.4579 33.9829 88.3984 33.7965C87.1059 29.0023 85.5026 24.2974 83.5985 19.7116C83.5273 19.5386 83.4221 19.3816 83.289 19.25C83.156 19.1184 82.9978 19.0149 82.824 18.9457C82.6047 18.8325 82.3735 18.744 82.1347 18.6819L82.1432 18.6989ZM73.9901 18.6989C73.8171 18.6889 73.6439 18.7148 73.4814 18.7748C73.3189 18.8349 73.1705 18.9278 73.0455 19.0478C72.7355 19.2784 72.5206 19.6144 72.4412 19.9925C71.857 24.5974 70.4136 29.0518 68.186 33.1242C68.0869 33.2909 68.0277 33.4783 68.0129 33.6716C67.9982 33.865 68.0283 34.0592 68.1009 34.239C68.1657 34.4246 68.2667 34.5955 68.3983 34.7416C68.5298 34.8877 68.689 35.0062 68.8668 35.0901C69.0853 35.1855 69.3184 35.2431 69.5562 35.2603C69.7335 35.2731 69.9113 35.2439 70.0753 35.1752C70.2558 35.125 70.4242 35.0389 70.5705 34.9219C70.7167 34.8048 70.8378 34.6594 70.9263 34.4944C73.3585 30.1092 74.9299 25.2996 75.5561 20.3244C75.5855 20.138 75.57 19.9473 75.5108 19.7682C75.4516 19.589 75.3504 19.4267 75.2156 19.2946C74.9317 19.0229 74.5731 18.8422 74.1859 18.7755L73.9901 18.6989Z" fill="url(#paint3_linear_3769_12732)"/>
<path d="M96.7898 36.222C96.4865 36.2271 96.1891 36.1379 95.9387 35.9667C95.6934 35.7668 95.5152 35.4965 95.4281 35.1922C95.3881 35.0406 95.3908 34.8809 95.4359 34.7307C95.4809 34.5806 95.5666 34.4458 95.6834 34.3412C95.782 34.2086 95.9105 34.101 96.0583 34.0271C96.2061 33.9531 96.3692 33.915 96.5345 33.9157C103.232 33.3114 107.096 30.9115 107.862 26.7073H93.1813C93.0227 26.7141 92.8644 26.6865 92.7175 26.6262C92.5706 26.566 92.4385 26.4746 92.3303 26.3584C92.2131 26.2509 92.1211 26.1189 92.0608 25.9718C92.0005 25.8247 91.9733 25.6661 91.9814 25.5073C92.0066 25.1943 92.1286 24.8969 92.3303 24.6563C92.4389 24.5411 92.5713 24.451 92.7183 24.3922C92.8652 24.3334 93.0233 24.3073 93.1813 24.3158H109.351C109.543 24.3142 109.732 24.351 109.909 24.4241C110.086 24.4972 110.247 24.6051 110.381 24.7414C110.518 24.8774 110.625 25.0393 110.699 25.2176C110.772 25.3959 110.808 25.587 110.807 25.7796C110.466 31.9583 105.828 35.5667 96.9855 36.3326L96.7898 36.222ZM94.9005 20.767C94.7427 20.7732 94.5853 20.7462 94.4386 20.6875C94.292 20.6289 94.1594 20.5399 94.0494 20.4265C93.9347 20.3176 93.8449 20.1851 93.7861 20.0382C93.7274 19.8913 93.7011 19.7335 93.709 19.5755C93.7043 19.4166 93.7321 19.2585 93.7907 19.1108C93.8494 18.9631 93.9376 18.8289 94.05 18.7165C94.1623 18.6041 94.2965 18.5159 94.4442 18.4572C94.592 18.3986 94.7501 18.3708 94.909 18.3755H107.964C108.123 18.372 108.28 18.4007 108.427 18.4598C108.575 18.5188 108.708 18.6071 108.82 18.7192C108.932 18.8314 109.021 18.965 109.08 19.1122C109.139 19.2593 109.168 19.417 109.164 19.5755C109.142 19.8893 109.02 20.1877 108.815 20.4265C108.706 20.5417 108.574 20.6318 108.427 20.6906C108.28 20.7494 108.122 20.7755 107.964 20.767H94.9005Z" fill="url(#paint4_linear_3769_12732)"/>
<path d="M107.956 18.5202C108.102 18.506 108.249 18.5299 108.383 18.5896C108.518 18.6492 108.634 18.7426 108.722 18.8606C108.829 18.9597 108.915 19.0794 108.975 19.2124C109.034 19.3455 109.067 19.4892 109.07 19.6351C109.08 19.7828 109.053 19.9305 108.992 20.0655C108.931 20.2004 108.838 20.3185 108.722 20.4095C108.503 20.592 108.238 20.7099 107.956 20.7499H94.9005C94.7427 20.7562 94.5853 20.7291 94.4387 20.6705C94.292 20.6118 94.1594 20.5229 94.0494 20.4095C93.9354 20.3167 93.845 20.198 93.7858 20.0633C93.7266 19.9287 93.7003 19.7819 93.709 19.6351C93.7103 19.4896 93.7411 19.346 93.7996 19.2128C93.8581 19.0797 93.9432 18.9599 94.0494 18.8606C94.1594 18.7472 94.292 18.6583 94.4387 18.5996C94.5853 18.541 94.7427 18.5139 94.9005 18.5202H107.956M109.241 24.2733C109.599 24.2878 109.937 24.4403 110.185 24.6988C110.317 24.8146 110.418 24.962 110.477 25.1272C110.537 25.2924 110.554 25.4701 110.526 25.6435C110.185 31.8306 105.547 35.3454 96.7898 36.1199H96.7047C96.4248 36.1271 96.151 36.0368 95.9303 35.8645C95.6677 35.6807 95.4851 35.4038 95.4196 35.0901C95.3856 34.9516 95.3849 34.807 95.4175 34.6682C95.4501 34.5294 95.5152 34.4003 95.6074 34.2915C95.6996 34.1827 95.8162 34.0973 95.9478 34.0424C96.0794 33.9874 96.2221 33.9644 96.3643 33.9752C103.173 33.371 107.011 30.971 107.777 26.6817C107.777 26.6817 107.777 26.5881 107.692 26.5881C107.681 26.5768 107.667 26.5678 107.653 26.5617C107.638 26.5555 107.622 26.5523 107.607 26.5523C107.591 26.5523 107.575 26.5555 107.56 26.5617C107.546 26.5678 107.533 26.5768 107.522 26.5881H92.9261C92.6463 26.5939 92.373 26.5038 92.1516 26.3328C91.9566 26.1456 91.8395 25.8917 91.8237 25.6218C91.8079 25.352 91.8946 25.0862 92.0665 24.8775L92.1516 24.7924C92.3624 24.5911 92.6356 24.468 92.9261 24.4435L109.241 24.2733M107.956 18.3159H94.9005C94.5598 18.3382 94.2324 18.4562 93.9558 18.6563C93.7236 18.8736 93.5848 19.1726 93.569 19.4902C93.5531 19.8078 93.6613 20.1191 93.8707 20.3584L93.9558 20.4435C94.0825 20.5611 94.2312 20.6525 94.3933 20.7124C94.5554 20.7723 94.7278 20.7995 94.9005 20.7925H107.956C108.297 20.7659 108.624 20.6451 108.9 20.4435C109.132 20.2263 109.271 19.9273 109.287 19.6097C109.303 19.2921 109.195 18.9807 108.985 18.7414L108.9 18.6563C108.773 18.5403 108.624 18.4505 108.462 18.3921C108.3 18.3337 108.128 18.3078 107.956 18.3159V18.3159ZM109.326 24.1541H93.0962C92.9241 24.146 92.7521 24.1719 92.59 24.2303C92.4279 24.2887 92.279 24.3785 92.1516 24.4945C91.8945 24.7437 91.7423 25.0816 91.7261 25.4392C91.7388 25.7976 91.8916 26.1368 92.1516 26.3839C92.2775 26.5026 92.426 26.5948 92.5883 26.6547C92.7506 26.7147 92.9234 26.7412 93.0962 26.7328H107.692C106.841 30.8519 103.147 33.1667 96.5345 33.6858C96.3692 33.6852 96.2061 33.7234 96.0583 33.7973C95.9105 33.8712 95.7821 33.9788 95.6834 34.1114C95.5617 34.2326 95.4741 34.3837 95.4293 34.5495C95.3844 34.7153 95.3841 34.89 95.4281 35.056C95.5117 35.394 95.7122 35.6914 95.9942 35.8955C96.2762 36.0996 96.6214 36.1972 96.9685 36.1709H97.0536C105.896 35.3965 110.619 31.7965 110.968 25.5243C110.99 25.3173 110.962 25.108 110.887 24.9141C110.811 24.7201 110.69 24.547 110.534 24.4094C110.173 24.1956 109.751 24.106 109.334 24.1541H109.326Z" fill="url(#paint5_linear_3769_12732)"/>
<path d="M117.913 36.1199C117.609 36.1261 117.312 36.0368 117.062 35.8645C116.917 35.7703 116.796 35.645 116.706 35.4978C116.616 35.3506 116.56 35.1851 116.543 35.0135C116.498 34.8469 116.499 34.6712 116.545 34.505C116.591 34.3388 116.682 34.1882 116.806 34.0688C116.905 33.9362 117.033 33.8286 117.181 33.7547C117.329 33.6808 117.492 33.6427 117.657 33.6433C122.032 33.1242 125.376 32.0093 127.53 30.3753C129.683 28.7413 131.215 26.0009 132.074 22.3074C132.165 21.9594 132.38 21.6567 132.678 21.4563C132.784 21.3641 132.907 21.294 133.04 21.2501C133.173 21.2063 133.313 21.1896 133.453 21.201C133.665 21.195 133.877 21.2379 134.07 21.3264C134.263 21.415 134.434 21.5468 134.568 21.7116C134.659 21.8491 134.721 22.0039 134.751 22.1663C134.78 22.3288 134.776 22.4955 134.738 22.6563C133.793 26.869 131.989 30.0434 129.419 32.188C126.849 34.3327 123.062 35.5922 118.168 36.1369L117.913 36.1199ZM122.457 27.1924H122.202C120.832 26.9371 119.028 26.5881 116.713 26.1626C116.375 26.0987 116.073 25.9142 115.862 25.6435C115.766 25.5078 115.701 25.3533 115.67 25.1904C115.64 25.0275 115.644 24.8599 115.683 24.6988C115.719 24.5337 115.792 24.3789 115.897 24.2462C116.002 24.1135 116.135 24.0064 116.287 23.9329C116.475 23.7599 116.722 23.6654 116.977 23.669H117.232C119.547 24.1031 121.351 24.3584 122.73 24.6988C123.042 24.7732 123.317 24.9575 123.504 25.2179C123.596 25.3552 123.659 25.51 123.688 25.6725C123.717 25.8351 123.713 26.0019 123.674 26.1626C123.606 26.4773 123.42 26.7542 123.155 26.9371C122.951 27.0856 122.709 27.1741 122.457 27.1924V27.1924ZM123.751 21.6946H123.504C121.436 21.3542 119.462 21.0138 117.751 20.6648C117.416 20.6003 117.115 20.4194 116.9 20.1542C116.799 20.0195 116.729 19.8645 116.694 19.7C116.658 19.5354 116.659 19.3652 116.696 19.201C116.759 18.8863 116.942 18.6085 117.206 18.4266C117.395 18.2559 117.642 18.1645 117.896 18.1713H118.151C119.351 18.3415 121.24 18.6819 123.904 19.201C124.238 19.2676 124.539 19.4481 124.755 19.7117C124.847 19.8491 124.909 20.0039 124.938 20.1664C124.967 20.3288 124.963 20.4956 124.925 20.6563C124.894 20.8242 124.822 20.9821 124.717 21.1168C124.612 21.2515 124.476 21.3592 124.321 21.4308C124.255 21.5184 124.169 21.5884 124.069 21.6344C123.97 21.6805 123.86 21.7011 123.751 21.6946V21.6946ZM131.478 20.4095C131.329 20.4225 131.178 20.393 131.044 20.3244C130.765 20.2337 130.525 20.0506 130.364 19.8053L129.461 18.1798C129.385 18.0675 129.337 17.9386 129.321 17.8039C129.304 17.6692 129.321 17.5325 129.368 17.4053C129.406 17.2731 129.472 17.1507 129.561 17.0464C129.651 16.9421 129.762 16.8584 129.887 16.8011C130.051 16.731 130.229 16.7018 130.406 16.716C130.597 16.7016 130.788 16.7431 130.956 16.8352C131.123 16.9274 131.261 17.0663 131.351 17.2351L132.287 18.9372C132.366 19.0627 132.416 19.2045 132.432 19.352C132.448 19.4994 132.43 19.6486 132.381 19.7883C132.342 19.9333 132.266 20.0656 132.16 20.1717C132.054 20.2778 131.921 20.354 131.776 20.3925L131.478 20.4095ZM134.883 20.1542C134.712 20.1542 134.627 20.1542 134.542 20.0691C134.262 19.9754 134.02 19.7932 133.853 19.55C133.683 19.2095 133.342 18.6053 132.908 17.8479C132.804 17.7534 132.732 17.629 132.702 17.4919C132.671 17.3547 132.684 17.2116 132.738 17.0819C132.769 16.9465 132.832 16.8206 132.923 16.7153C133.013 16.61 133.128 16.5284 133.257 16.4777C133.418 16.4084 133.593 16.3792 133.768 16.3926H134.108C134.389 16.4806 134.632 16.6605 134.798 16.9032L135.827 18.6053C135.902 18.7328 135.948 18.8747 135.962 19.0216C135.977 19.1684 135.96 19.3167 135.912 19.4563C135.861 19.5933 135.782 19.718 135.679 19.8221C135.576 19.9262 135.453 20.0075 135.317 20.0606C135.186 20.1377 135.033 20.1678 134.883 20.1457V20.1542Z" fill="url(#paint6_linear_3769_12732)"/>
<path d="M133.878 16.4606C134 16.4573 134.121 16.4867 134.227 16.5457C134.361 16.5777 134.485 16.6416 134.589 16.732C134.693 16.8224 134.773 16.9366 134.823 17.0649L135.853 18.767C135.928 18.88 135.974 19.0092 135.989 19.1439C136.004 19.2786 135.986 19.4149 135.938 19.5414C135.901 19.6628 135.836 19.7735 135.747 19.864C135.658 19.9544 135.548 20.0219 135.427 20.0606C135.294 20.1292 135.143 20.1586 134.993 20.1457C134.873 20.1584 134.753 20.1283 134.653 20.0606C134.52 20.0244 134.397 19.959 134.292 19.8692C134.188 19.7794 134.104 19.6674 134.049 19.5414C133.878 19.201 133.538 18.5968 133.104 17.8393C132.997 17.6294 132.966 17.3884 133.019 17.1585C133.056 17.0358 133.122 16.9241 133.213 16.8335C133.304 16.7429 133.415 16.6762 133.538 16.6393C133.538 16.4691 133.708 16.384 133.878 16.4692M130.474 16.7245C130.593 16.7209 130.711 16.7504 130.815 16.8096C131.047 16.9061 131.253 17.0546 131.419 17.2436L132.364 18.8691C132.475 19.1113 132.505 19.383 132.449 19.6435C132.368 19.8261 132.236 19.9809 132.068 20.0884C131.9 20.1959 131.703 20.2513 131.504 20.2478C131.381 20.2604 131.258 20.2303 131.155 20.1627C130.923 20.0712 130.718 19.9218 130.559 19.7287C130.04 18.784 129.708 18.2734 129.615 18.1032C129.498 17.8931 129.468 17.6459 129.53 17.4138C129.568 17.293 129.634 17.183 129.722 17.0928C129.811 17.0025 129.92 16.9346 130.04 16.8947C130.04 16.8096 130.21 16.7245 130.474 16.7245M117.938 18.2734H118.194C119.394 18.4436 121.283 18.784 124.032 19.3031C124.323 19.3743 124.59 19.5211 124.806 19.7287C124.892 19.8508 124.952 19.9896 124.981 20.1362C125.011 20.2827 125.009 20.4338 124.976 20.5797C124.959 20.7305 124.902 20.8739 124.811 20.9951C124.719 21.1163 124.597 21.2109 124.457 21.2691C124.246 21.3755 124.013 21.4336 123.776 21.4393H123.504C121.436 21.0989 119.547 20.7499 117.751 20.4095C117.459 20.3415 117.191 20.1943 116.977 19.984C116.89 19.8618 116.831 19.723 116.802 19.5764C116.772 19.4299 116.774 19.2788 116.806 19.1329C116.869 18.8182 117.053 18.5404 117.317 18.3585C117.487 18.3585 117.751 18.2734 117.921 18.2734M133.376 21.2776H133.632C133.945 21.3431 134.222 21.5257 134.406 21.7882C134.496 21.9086 134.558 22.0474 134.587 22.1946C134.616 22.3418 134.613 22.4937 134.576 22.6393C133.632 26.8519 131.827 30.0264 129.249 32.0859C126.67 34.1454 122.985 35.4305 118.091 35.9496H117.921C117.643 35.9435 117.374 35.8546 117.147 35.6943C116.884 35.5091 116.699 35.2333 116.628 34.9199C116.589 34.7675 116.593 34.6073 116.639 34.4571C116.686 34.3068 116.773 34.1725 116.891 34.0688C116.973 33.9369 117.087 33.8282 117.222 33.7536C117.358 33.679 117.511 33.641 117.666 33.6433C122.04 33.1242 125.385 32.0093 127.538 30.2902C129.691 28.5711 131.223 25.8307 132.083 22.1371C132.149 21.8214 132.335 21.5437 132.602 21.3627C132.854 21.2963 133.115 21.2676 133.376 21.2776M116.977 23.8307H117.232C119.462 24.2562 121.351 24.5115 122.73 24.8605C123.021 24.9317 123.288 25.0785 123.504 25.286C123.663 25.5377 123.716 25.8422 123.65 26.1327C123.585 26.4231 123.407 26.6757 123.155 26.8349V26.8349C122.941 26.9423 122.705 27.0005 122.466 27.0051H122.211L116.696 26.0094C116.401 25.942 116.132 25.7913 115.921 25.5754C115.829 25.4561 115.766 25.3173 115.737 25.1697C115.707 25.0221 115.712 24.8697 115.751 24.7243C115.836 24.469 116.006 24.1286 116.262 24.0435C116.349 23.9536 116.46 23.89 116.582 23.8599C116.704 23.8299 116.832 23.8345 116.951 23.8733M133.861 16.1458C133.654 16.1625 133.451 16.2203 133.266 16.3159C133.116 16.3715 132.982 16.4636 132.876 16.584C132.771 16.7044 132.697 16.8492 132.661 17.0053C132.612 17.1447 132.594 17.2932 132.609 17.4403C132.624 17.5875 132.671 17.7295 132.746 17.8564C133.172 18.6308 133.521 19.2351 133.691 19.5585C133.865 19.8492 134.141 20.0647 134.466 20.1627C134.636 20.1627 134.721 20.2478 134.891 20.2478C135.069 20.2613 135.247 20.2321 135.41 20.1627C135.692 20.0202 135.906 19.7725 136.006 19.4734C136.054 19.3337 136.071 19.1854 136.056 19.0386C136.041 18.8917 135.995 18.7498 135.921 18.6223L134.891 16.9202C134.716 16.6321 134.44 16.4197 134.117 16.3245C134.117 16.2394 133.946 16.2394 133.861 16.1543V16.1458ZM130.457 16.4862C130.278 16.4862 130.023 16.5713 129.853 16.5713C129.711 16.6402 129.585 16.7367 129.481 16.855C129.378 16.9734 129.298 17.1113 129.249 17.2606C129.201 17.4003 129.184 17.5486 129.199 17.6954C129.213 17.8422 129.259 17.9842 129.334 18.1117C129.427 18.2819 129.768 18.7925 130.278 19.7372C130.442 20.0035 130.682 20.2142 130.968 20.3414C131.101 20.4109 131.252 20.4405 131.402 20.4265C131.576 20.4399 131.752 20.4107 131.912 20.3414C132.068 20.2962 132.208 20.2072 132.315 20.085C132.422 19.9629 132.492 19.8127 132.517 19.6521C132.613 19.3381 132.582 18.9992 132.432 18.7074C132.347 18.5372 131.998 17.9415 131.487 17.0053C131.322 16.7594 131.079 16.5764 130.798 16.4862H130.457ZM118.006 18.0351C117.729 18.0412 117.459 18.1301 117.232 18.2904C117.077 18.3812 116.942 18.5041 116.838 18.6509C116.734 18.7976 116.662 18.9648 116.628 19.1414C116.588 19.3218 116.592 19.5088 116.637 19.6876C116.683 19.8664 116.77 20.0321 116.891 20.1712C116.985 20.3154 117.111 20.4363 117.258 20.5248C117.406 20.6133 117.571 20.667 117.743 20.6818C119.538 20.9457 121.428 21.2861 123.496 21.7116H123.751C124.028 21.704 124.298 21.6152 124.525 21.4563C124.681 21.3667 124.815 21.2441 124.918 21.097C125.021 20.95 125.09 20.7821 125.121 20.6052C125.16 20.4255 125.158 20.2392 125.113 20.0606C125.069 19.882 124.984 19.7161 124.866 19.5755C124.753 19.4285 124.611 19.307 124.448 19.219C124.285 19.1309 124.106 19.0784 123.921 19.0648C121.172 18.5457 119.283 18.2138 118.083 18.0351H118.006ZM133.376 21.0393C133.098 21.0443 132.828 21.1333 132.602 21.2946C132.444 21.3827 132.308 21.5049 132.204 21.6521C132.099 21.7993 132.029 21.9678 131.998 22.1456C131.147 25.7541 129.683 28.4945 127.538 30.2136C125.393 31.9327 122.04 33.0476 117.751 33.4731C117.382 33.5221 117.045 33.7073 116.806 33.9922C116.675 34.1252 116.582 34.2906 116.535 34.4715C116.489 34.6524 116.491 34.8424 116.543 35.022C116.628 35.3977 116.841 35.7319 117.147 35.9667C117.279 36.0714 117.43 36.148 117.593 36.192C117.755 36.2359 117.925 36.2461 118.091 36.222H118.262C123.155 35.7114 126.934 34.3326 129.598 32.2731C132.261 30.2136 133.972 26.9541 134.917 22.7414C134.961 22.5619 134.961 22.3744 134.916 22.195C134.872 22.0156 134.784 21.8497 134.661 21.7116C134.417 21.4186 134.086 21.2101 133.717 21.1159C133.613 21.0567 133.495 21.0272 133.376 21.0308V21.0393ZM116.977 23.5924C116.697 23.5978 116.427 23.69 116.202 23.8562C116.046 23.9458 115.911 24.0683 115.806 24.2153C115.702 24.3622 115.631 24.5301 115.598 24.7073C115.558 24.8889 115.561 25.0774 115.607 25.2577C115.652 25.438 115.74 25.6051 115.862 25.7456C115.955 25.8897 116.081 26.0107 116.228 26.0991C116.376 26.1876 116.541 26.2413 116.713 26.2562C118.942 26.6902 120.832 27.0307 122.202 27.286H122.457C122.735 27.2809 123.005 27.1919 123.232 27.0307C123.389 26.9416 123.524 26.8192 123.628 26.6722C123.733 26.5251 123.804 26.357 123.836 26.1796C123.905 25.8271 123.845 25.4613 123.666 25.1498C123.572 25.0054 123.446 24.8838 123.299 24.7939C123.152 24.7041 122.986 24.6484 122.815 24.6307C121.436 24.3754 119.547 24.035 117.317 23.6009L116.977 23.5924Z" fill="url(#paint7_linear_3769_12732)"/>
<path d="M147.189 36.29C146.911 36.2839 146.641 36.195 146.414 36.0347C146.258 35.9452 146.123 35.8226 146.018 35.6757C145.914 35.5287 145.843 35.3608 145.81 35.1836L144.355 27.4561C144.355 27.371 144.355 27.371 144.27 27.371L141.18 27.9753H140.917C140.68 27.9696 140.447 27.9115 140.236 27.805C140.093 27.7281 139.97 27.6173 139.88 27.4823C139.789 27.3473 139.733 27.1923 139.717 27.0306C139.678 26.8699 139.674 26.7031 139.703 26.5405C139.732 26.378 139.795 26.2232 139.887 26.0859C140.088 25.8402 140.357 25.6596 140.661 25.5668L143.751 24.9711H143.836L143.41 22.5626C143.366 22.3966 143.366 22.2219 143.411 22.0561C143.456 21.8903 143.544 21.7391 143.665 21.6179C143.881 21.3544 144.182 21.1739 144.516 21.1073H144.772C145.05 21.1124 145.32 21.2014 145.546 21.3626C145.691 21.4568 145.812 21.5821 145.902 21.7294C145.992 21.8766 146.048 22.0421 146.065 22.2137L146.491 24.4434C146.491 24.4546 146.493 24.4657 146.497 24.476C146.502 24.4863 146.508 24.4957 146.516 24.5036C146.524 24.5115 146.533 24.5178 146.543 24.522C146.554 24.5263 146.565 24.5285 146.576 24.5285L154.823 22.9881H155.078C155.317 22.9958 155.552 23.0538 155.767 23.1583C156.032 23.3402 156.215 23.618 156.278 23.9328C156.463 24.6403 156.433 25.3867 156.193 26.0774C155.596 27.9002 154.565 29.5505 153.189 30.8859C152.941 31.1444 152.602 31.2969 152.244 31.3114C152.072 31.32 151.9 31.2943 151.738 31.2359C151.575 31.1775 151.426 31.0874 151.299 30.9709C151.167 30.8719 151.06 30.7434 150.986 30.5957C150.912 30.4479 150.874 30.2851 150.874 30.1199C150.866 29.962 150.893 29.8043 150.952 29.6575C151.01 29.5107 151.1 29.3781 151.214 29.2689C152.267 28.222 153.085 26.9629 153.614 25.5753L147.104 26.8604H147.019L148.474 34.673C148.512 34.8337 148.516 35.0005 148.487 35.163C148.457 35.3254 148.395 35.4802 148.304 35.6177C148.088 35.8813 147.787 36.0617 147.453 36.1283L147.189 36.29Z" fill="url(#paint8_linear_3769_12732)"/>
<path d="M144.865 21.269C145.105 21.2737 145.34 21.3319 145.555 21.4392C145.82 21.6221 146.005 21.899 146.074 22.2137L146.499 24.4434C146.503 24.4873 146.522 24.5284 146.553 24.5595C146.585 24.5906 146.626 24.6098 146.67 24.6136H146.755L154.916 23.0732H155.172C155.384 23.0795 155.591 23.138 155.776 23.2434C156.019 23.4094 156.198 23.6522 156.286 23.9328C156.471 24.6403 156.441 25.3867 156.201 26.0774C155.583 27.8702 154.587 29.5098 153.282 30.8859C153.173 31.0006 153.041 31.0904 152.894 31.1492C152.747 31.2079 152.589 31.2342 152.431 31.2263C152.259 31.2349 152.087 31.2092 151.925 31.1508C151.763 31.0923 151.614 31.0023 151.487 30.8859C151.367 30.7977 151.273 30.6798 151.213 30.5439C151.154 30.4081 151.13 30.259 151.146 30.1114C151.138 29.9647 151.165 29.8181 151.224 29.6835C151.283 29.549 151.373 29.4303 151.487 29.337C152.539 28.2385 153.384 26.9582 153.98 25.5583V25.4732C153.98 25.4732 153.98 25.3881 153.895 25.4732L147.333 26.7668C147.163 26.7668 147.163 26.8519 147.163 27.0221L148.618 34.7496C148.651 34.8955 148.653 35.0466 148.623 35.1931C148.594 35.3397 148.534 35.4785 148.448 35.6007C148.234 35.8659 147.932 36.0468 147.597 36.1113H147.257C147.017 36.1055 146.782 36.0474 146.567 35.9411C146.303 35.7592 146.12 35.4814 146.057 35.1666L144.593 27.4391C144.589 27.3953 144.57 27.3542 144.539 27.323C144.508 27.2919 144.467 27.2728 144.423 27.2689H144.338L141.248 27.9583H140.985C140.775 27.9531 140.57 27.8945 140.389 27.788C140.147 27.6189 139.966 27.3776 139.87 27.0987C139.836 26.9524 139.835 26.8005 139.866 26.6536C139.897 26.5066 139.959 26.3681 140.048 26.2476C140.129 26.1169 140.242 26.0091 140.376 25.9346C140.51 25.86 140.661 25.8213 140.814 25.8221L143.904 25.2179C144.082 25.2179 144.082 25.1328 144.082 24.9626L143.648 22.6392C143.612 22.4936 143.608 22.3417 143.638 22.1945C143.667 22.0473 143.729 21.9085 143.819 21.7882C144.036 21.5262 144.336 21.3461 144.67 21.2775H144.84M144.933 21.0222H144.67C144.48 21.0521 144.298 21.1204 144.136 21.2228C143.973 21.3252 143.834 21.4597 143.725 21.6179C143.606 21.7585 143.522 21.9245 143.477 22.1031C143.433 22.2816 143.43 22.468 143.47 22.6477L143.895 24.9711L140.806 25.5668C140.471 25.6383 140.171 25.8213 139.955 26.0859C139.844 26.2303 139.77 26.3999 139.741 26.5795C139.711 26.7591 139.726 26.9433 139.785 27.1157C139.875 27.4637 140.09 27.7664 140.389 27.9668C140.494 28.0559 140.62 28.1179 140.755 28.1476C140.89 28.1772 141.03 28.1736 141.163 28.137H141.419L144.508 27.5327L145.972 35.1922C146.051 35.5681 146.262 35.9032 146.567 36.1368C146.818 36.3081 147.115 36.3973 147.419 36.3922H147.674C148.05 36.3128 148.385 36.1014 148.618 35.7964C148.74 35.6573 148.827 35.4917 148.873 35.3128C148.918 35.134 148.922 34.947 148.882 34.7667L147.419 27.0391L153.776 25.8391C153.214 27.1383 152.428 28.3282 151.452 29.354C151.32 29.4693 151.219 29.6167 151.159 29.782C151.1 29.9474 151.083 30.1252 151.112 30.2986C151.111 30.4639 151.15 30.627 151.223 30.7748C151.297 30.9227 151.405 31.0511 151.538 31.1497C151.827 31.3857 152.194 31.5068 152.567 31.4901C152.951 31.4785 153.317 31.3272 153.597 31.0646C154.985 29.67 156.018 27.9626 156.61 26.0859C156.851 25.3662 156.881 24.5922 156.695 23.8562C156.621 23.5671 156.454 23.3101 156.221 23.1242C155.987 22.9383 155.7 22.8338 155.401 22.8264H155.146L146.993 24.4519L146.559 22.2222C146.477 21.8471 146.267 21.5127 145.963 21.2775C145.712 21.1073 145.415 21.0182 145.112 21.0222H144.933Z" fill="url(#paint9_linear_3769_12732)"/>
<path d="M228.147 23.9747C230.275 15.2714 224.478 6.37683 215.199 4.10804C205.92 1.83925 196.673 7.05543 194.545 15.7587C192.417 24.462 198.214 33.3566 207.493 35.6253C216.772 37.8941 226.019 32.678 228.147 23.9747Z" fill="#231815"/>
<path d="M226.775 23.6392C228.729 15.6481 223.405 7.48096 214.884 5.39744C206.363 3.31392 197.871 8.10298 195.917 16.0941C193.963 24.0852 199.287 32.2523 207.808 34.3358C216.329 36.4193 224.821 31.6303 226.775 23.6392Z" fill="white"/>
<path d="M209.994 34.5579C209.994 34.5579 200.115 38.8953 193.547 35.1753C193.547 35.1753 199.721 32.0882 199.852 30.699C199.852 30.699 207.995 35.6924 209.994 34.5579Z" fill="#231815"/>
<path d="M204.074 29.8578C204.074 29.8578 198.764 34.9438 197.53 34.8589C202.05 35.3637 206.611 34.3539 210.495 31.9879L204.074 29.8578Z" fill="white"/>
<path d="M193.894 26.1223C193.894 33.0683 186.586 38.4708 178.189 39.2426C167.623 40.2768 162.9 33.5932 162.9 26.6239C162.9 19.6547 169.745 13.9976 178.189 13.9976C186.632 13.9976 193.894 19.1531 193.894 26.1223Z" fill="white"/>
<path d="M172.446 39.2658C172.446 39.2658 165.5 37.3672 167.754 30.9228C168.12 30.3667 168.602 29.896 169.167 29.5431C169.732 29.1901 170.366 28.9631 171.026 28.8776C173.427 28.4608 174.553 25.7904 174.553 25.7904C174.553 25.7904 175.001 23.9227 176.722 24.0694C178.443 24.216 178.351 23.2436 178.351 23.2436C178.406 23.0682 178.499 22.9068 178.623 22.7704C178.746 22.6339 178.898 22.5254 179.066 22.4523C179.235 22.3792 179.418 22.3431 179.602 22.3464C179.786 22.3498 179.967 22.3925 180.133 22.4718C181.561 22.9426 184.44 23.1201 186.308 21.6074C188.175 20.0947 190.846 21.399 190.846 21.399C190.846 21.399 196.511 25.775 191.347 33.0529C191.347 33.0529 194.643 30.0661 194.797 26.1069C194.952 22.1476 193.64 17.6713 186.045 12.4849L183.815 11.3581L180.349 7.56864L177.772 7.21362L176.668 10.8024L175.719 13.7661C175.027 13.6529 174.319 13.7013 173.65 13.9075C172.98 14.1137 172.368 14.4721 171.86 14.9546C170.231 16.5908 169.992 16.0274 169.992 16.0274C169.992 16.0274 166.866 13.9204 165.994 13.8741C165.122 13.8278 163.679 13.6812 163.679 13.6812L163.471 21.6074C163.471 21.6074 162.159 29.5104 163.471 32.4895C164.783 35.4686 167.075 39.0034 172.446 39.2658Z" fill="#E5C080"/>
<path d="M174.499 38.656C174.515 38.649 174.532 38.6454 174.55 38.6454C174.567 38.6454 174.584 38.649 174.6 38.656C174.813 38.8055 174.972 39.0191 175.055 39.2658C175.132 39.5282 175.055 39.8755 174.584 40.2305C174.54 40.2554 174.494 40.276 174.445 40.2922C173.47 40.2558 172.499 40.137 171.544 39.9372C170.026 39.6274 168.568 39.0722 167.229 38.2933C165.867 37.4873 164.703 36.3847 163.826 35.0672C163.71 34.9052 163.617 34.7277 163.517 34.5579C163.412 34.3896 163.319 34.2143 163.239 34.0331L162.984 33.5005L162.768 32.9525C162.691 32.7673 162.645 32.5821 162.583 32.3969C162.521 32.2117 162.46 32.0187 162.421 31.8335L162.29 31.2624V31.1389V31.0617C162.29 30.9999 162.251 30.9228 162.236 30.8687L162.197 30.699C162.128 30.3037 162.086 29.9039 162.074 29.5027V28.3604C162.074 27.5887 162.128 26.8709 162.182 26.13V25.9756C162.298 24.5864 162.452 23.2049 162.653 21.8389V21.5842V21.5302V21.4839V20.959C162.653 20.604 162.653 20.2567 162.653 19.9094C162.653 19.2097 162.653 18.5073 162.653 17.8025C162.653 17.1001 162.73 16.3978 162.815 15.6878C162.815 15.5102 162.861 15.3327 162.892 15.1552L162.984 14.615C162.984 14.4375 163.062 14.2522 163.1 14.0747C163.128 13.9382 163.167 13.804 163.216 13.6734L163.393 13.2181L163.478 12.9942L163.525 12.8785V12.8244C163.68 12.79 163.837 12.7642 163.995 12.7473C164.157 12.7317 164.32 12.7317 164.482 12.7473H164.736H164.945C165.329 12.7988 165.708 12.8814 166.079 12.9942C166.785 13.2195 167.469 13.5062 168.125 13.8509L168.364 13.9744L168.595 14.1133L169.066 14.3834L169.514 14.669L169.745 14.8079L169.961 14.9623L170.301 14.7462L170.764 14.4683C172.023 13.7236 173.39 13.1794 174.816 12.8553L175.318 12.7704L175.356 12.4694C175.456 11.7671 175.572 11.0725 175.734 10.3779C175.886 9.66238 176.095 8.96035 176.359 8.27865C176.5 7.91415 176.673 7.56288 176.877 7.22901C176.938 7.14411 176.985 7.0515 177.054 6.96661L177.108 6.89715C177.129 6.86448 177.152 6.83351 177.178 6.80454L177.347 6.61929C177.409 6.56527 177.463 6.49582 177.525 6.4418L177.718 6.28743L178.111 5.98645C178.111 5.98645 178.111 5.98645 178.15 5.98645H178.212L178.343 6.04046L178.605 6.14079C178.775 6.21025 178.953 6.28745 179.122 6.37234C179.292 6.45724 179.493 6.54212 179.67 6.64245C180.025 6.81996 180.373 7.02063 180.72 7.22901C181.408 7.6443 182.063 8.11128 182.68 8.62594C183.306 9.13864 183.89 9.70131 184.425 10.3084L184.78 10.7406L185.034 10.8796C185.382 11.0725 185.721 11.2654 186.061 11.4738C187.507 12.3486 188.866 13.359 190.12 14.4915C191.403 15.6258 192.532 16.9231 193.478 18.3504C193.98 19.1214 194.409 19.9379 194.759 20.7893C194.929 21.2215 195.075 21.6614 195.206 22.109C195.26 22.3405 195.33 22.5644 195.368 22.7959L195.43 23.1432C195.456 23.2577 195.474 23.3737 195.484 23.4905C195.615 24.4249 195.615 25.3731 195.484 26.3075C195.417 26.7709 195.322 27.2296 195.199 27.6813C195.137 27.9051 195.067 28.1289 194.998 28.3527L194.952 28.4762C194.782 28.9702 194.574 29.4487 194.357 29.9194L194.126 30.3053C193.972 30.5446 193.755 30.8765 193.485 31.2392C192.899 32.0317 192.226 32.7565 191.479 33.4002C191.091 33.7631 190.657 34.0744 190.19 34.3263C189.92 34.4575 189.804 34.4344 189.812 34.3263C190.085 33.7728 190.424 33.2544 190.823 32.7828C190.745 32.8368 191.425 32.011 191.973 31.0231C192.258 30.5446 192.497 30.0506 192.675 29.6725L192.868 29.2171L192.937 29.0396L193.061 28.7772L193.169 28.5071C193.246 28.3296 193.308 28.1521 193.37 27.9668L193.47 27.8511C193.524 27.6581 193.586 27.4729 193.64 27.28C193.954 26.1295 194.04 24.9288 193.894 23.7452C193.894 23.6448 193.894 23.5522 193.848 23.4519L193.794 23.1586C193.755 22.9657 193.701 22.7804 193.655 22.5875C193.547 22.2016 193.416 21.8157 193.269 21.4453C192.962 20.6923 192.582 19.9711 192.135 19.292C191.264 17.9866 190.226 16.8008 189.048 15.7649C187.869 14.7021 186.593 13.7537 185.235 12.9325C184.919 12.7396 184.602 12.5543 184.278 12.3845L184.031 12.2456L183.776 12.1221C183.776 12.1221 183.738 12.1221 183.722 12.0758L183.676 12.0141L183.583 11.906L183.213 11.4429C182.737 10.9081 182.221 10.4101 181.669 9.95341C181.111 9.49186 180.521 9.07142 179.902 8.69539C179.593 8.51017 179.277 8.32494 178.953 8.16286L178.474 7.92361V7.96221C178.432 8.01631 178.393 8.07302 178.358 8.13201C178.209 8.37844 178.08 8.63654 177.972 8.90379C177.746 9.50219 177.563 10.116 177.424 10.7406C177.286 11.3812 177.17 12.0372 177.077 12.6932V12.9402V13.164V13.411C177.077 13.5808 177.077 13.7583 177.023 13.9281V14.1905V14.2908H176.892L175.873 14.3912H175.75H175.696H175.58L175.356 14.4375C174.105 14.7209 172.907 15.2002 171.806 15.8575C171.659 15.9347 171.52 16.0273 171.381 16.1045L171.181 16.2357L171.073 16.3052L170.857 16.4518L170.44 16.7528L170.224 16.9072L170.177 16.9458L170.123 16.9072L170.015 16.8377L169.197 16.2743L168.989 16.1277L168.781 15.9965L168.364 15.7341L167.947 15.4948L167.731 15.3713L167.515 15.2633C166.959 14.9512 166.375 14.6928 165.771 14.4915C165.485 14.406 165.193 14.3415 164.898 14.2986H164.852V14.3834C164.852 14.5378 164.775 14.6844 164.752 14.8465L164.667 15.325C164.667 15.4871 164.628 15.6492 164.605 15.8112C164.528 16.4595 164.474 17.1233 164.451 17.787C164.428 18.4507 164.412 19.1222 164.451 19.7936C164.451 20.1332 164.451 20.4651 164.451 20.8047V21.2986C164.451 21.2986 164.451 21.4376 164.451 21.5147V21.7231V21.9778C164.258 23.3207 164.104 24.6713 163.988 26.0142V26.1686C163.934 26.8786 163.887 27.5887 163.88 28.291V29.3252C163.891 29.6487 163.925 29.971 163.98 30.2899V30.3902C163.979 30.4134 163.979 30.4366 163.98 30.4597C163.98 30.4597 163.98 30.4057 163.98 30.4211C163.98 30.4211 163.98 30.4597 163.98 30.4674V30.5292V30.5755L164.019 30.7221L164.127 31.216C164.165 31.3781 164.227 31.5325 164.266 31.6946C164.304 31.8566 164.366 32.0187 164.428 32.1731L164.605 32.6361L164.821 33.0838C164.893 33.2344 164.973 33.3813 165.061 33.5237C165.135 33.6711 165.22 33.813 165.315 33.9482C166.053 35.0533 167.028 35.979 168.171 36.6571C169.35 37.3387 170.633 37.8235 171.968 38.0926C172.795 38.3493 173.642 38.5377 174.499 38.656V38.656Z" fill="#231815"/>
<path d="M164.968 16.4441C164.968 16.4441 164.79 19.292 165.207 20.357C165.613 19.6137 166.295 19.0595 167.106 18.8135L164.968 16.4441Z" fill="#E27748"/>
<path d="M180.226 13.056C181.033 12.743 181.868 12.5053 182.719 12.346C182.719 12.346 180.643 9.96886 179.871 10.0306L180.226 13.056Z" fill="#E27748"/>
<path d="M171.52 23.4752C172.002 23.4752 172.392 23.0847 172.392 22.6031C172.392 22.1214 172.002 21.731 171.52 21.731C171.039 21.731 170.648 22.1214 170.648 22.6031C170.648 23.0847 171.039 23.4752 171.52 23.4752Z" fill="white"/>
<path d="M180.079 19.4696C180.561 19.4696 180.952 19.0791 180.952 18.5975C180.952 18.1158 180.561 17.7253 180.079 17.7253C179.598 17.7253 179.207 18.1158 179.207 18.5975C179.207 19.0791 179.598 19.4696 180.079 19.4696Z" fill="white"/>
<path d="M169.832 31.3112C171.011 30.7732 171.704 29.7618 171.38 29.0522C171.056 28.3425 169.838 28.2034 168.659 28.7414C167.481 29.2793 166.787 30.2907 167.111 31.0003C167.435 31.71 168.653 31.8491 169.832 31.3112Z" fill="#DD874C"/>
<path d="M187.99 23.0225C189.169 22.4845 189.862 21.4731 189.538 20.7635C189.215 20.0539 187.996 19.9147 186.818 20.4527C185.639 20.9906 184.946 22.002 185.269 22.7117C185.593 23.4213 186.811 23.5604 187.99 23.0225Z" fill="#DD874C"/>
<path d="M173.751 40.2536C173.729 40.2561 173.707 40.2532 173.687 40.2451C173.667 40.237 173.649 40.224 173.635 40.2073C173.41 40.0582 173.25 39.8293 173.188 39.5667C173.149 39.2889 173.272 38.9725 173.712 38.6406C173.752 38.6125 173.797 38.5916 173.844 38.5788C174.738 38.6252 175.635 38.6252 176.529 38.5788C179.403 38.4744 182.236 37.8603 184.896 36.7652L185.575 36.4642L186.231 36.1323L186.331 36.086L186.601 35.9548L187.01 35.7618L187.52 35.4994C187.718 35.4044 187.911 35.2987 188.098 35.183L188.399 35.0132L188.7 34.828L189.001 34.635L189.156 34.5424L189.302 34.4421L189.866 34.0562C190.159 33.8247 190.406 33.6394 190.638 33.4928C190.79 33.3682 190.95 33.2522 191.116 33.1455C191.371 32.9911 191.487 32.9834 191.494 33.0992C191.461 33.3298 191.374 33.5492 191.24 33.7398L191.093 33.979L190.915 34.226C190.784 34.3958 190.645 34.581 190.483 34.7662C190.353 34.9404 190.206 35.1008 190.043 35.2447C189.897 35.4068 189.704 35.5689 189.503 35.7618C189.302 35.9548 189.295 35.9548 189.179 36.0474L188.839 36.3407L188.484 36.6262L188.129 36.8809L187.797 37.1202L187.489 37.3208L187.018 37.6141L186.833 37.7222C186.632 37.8302 186.424 37.9383 186.215 38.0309L185.582 38.3164C184.871 38.6111 184.144 38.8687 183.406 39.0882L183.136 39.1731L182.858 39.2503L182.302 39.4047C181.924 39.4896 181.531 39.5899 181.183 39.6593C179.686 39.9744 178.166 40.168 176.637 40.2382C175.676 40.2943 174.713 40.2995 173.751 40.2536V40.2536Z" fill="#B81C25"/>
<path d="M172.856 25.2734C173.45 26.1841 172.786 26.7784 171.883 27.3726C170.98 27.9669 170.162 28.3296 169.568 27.4189C169.427 27.2031 169.33 26.9615 169.282 26.7082C169.235 26.4548 169.238 26.1946 169.291 25.9423C169.344 25.69 169.446 25.4507 169.592 25.2379C169.737 25.0252 169.923 24.8431 170.139 24.7023C170.355 24.5614 170.596 24.4644 170.85 24.4169C171.103 24.3693 171.363 24.3721 171.616 24.4252C171.868 24.4782 172.107 24.5804 172.32 24.7259C172.533 24.8715 172.715 25.0575 172.856 25.2734V25.2734Z" fill="#231815"/>
<path d="M172.632 24.764C172.748 24.8412 172.74 25.0573 172.632 25.2503C172.578 25.3132 172.512 25.3647 172.437 25.4018C172.363 25.4389 172.282 25.4608 172.2 25.4664C172.168 25.3906 172.151 25.3093 172.151 25.2271C172.151 25.1449 172.168 25.0636 172.2 24.9879C172.315 24.8258 172.508 24.764 172.632 24.764Z" fill="#F7F7F7"/>
<path d="M184.787 20.1333C185.104 21.1675 184.309 21.5611 183.244 21.8775C182.179 22.1939 181.322 22.3251 181.006 21.291C180.852 20.7936 180.902 20.2556 181.146 19.7953C181.389 19.335 181.805 18.9902 182.302 18.8367C182.799 18.6832 183.337 18.7335 183.798 18.9767C184.258 19.2198 184.603 19.6359 184.756 20.1333H184.787Z" fill="#231815"/>
<path d="M184.687 19.5853C184.78 19.6856 184.687 19.894 184.54 20.0484C184.523 20.0929 184.495 20.1323 184.458 20.1626C184.421 20.193 184.377 20.2133 184.33 20.2216C184.282 20.2299 184.234 20.2259 184.189 20.2101C184.144 20.1942 184.104 20.1669 184.072 20.131C184.041 20.095 184.019 20.0515 184.009 20.0047C184 19.9579 184.002 19.9094 184.016 19.8638C184.031 19.8183 184.057 19.7772 184.092 19.7446C184.127 19.7121 184.17 19.6891 184.216 19.6779C184.386 19.5235 184.594 19.4849 184.687 19.5853Z" fill="#F7F7F7"/>
<path d="M178.334 25.976C179.371 25.5722 179.97 24.6267 179.673 23.8641C179.376 23.1015 178.295 22.8106 177.259 23.2144C176.222 23.6181 175.622 24.5636 175.919 25.3262C176.216 26.0888 177.298 26.3797 178.334 25.976Z" fill="#231815"/>
<path d="M180.782 27.2106L180.349 27.0793C179.23 27.9052 179.184 30.699 179.2 31.6252C179.462 31.8064 179.771 31.9085 180.09 31.9195C180.408 31.9304 180.724 31.8497 180.998 31.6869C183.329 30.5447 180.782 27.2106 180.782 27.2106Z" fill="#CF341A"/>
<path d="M180.349 27.0793L179.061 26.6934L177.81 29.2788C178.048 30.1727 178.541 30.9775 179.23 31.5942C179.207 30.7066 179.254 27.9128 180.349 27.0793Z" fill="#B01E23"/>
<path d="M177.571 25.7672C177.571 25.7672 177.571 25.7672 177.571 25.7209C177.669 25.5345 177.821 25.3818 178.006 25.2827C178.192 25.1836 178.404 25.1426 178.613 25.1652H178.675L179.107 25.9988L179.315 26.3847L179.431 26.6162L179.547 26.8323L179.655 27.0561V27.1101C179.655 27.1101 179.655 27.1487 179.655 27.1719L179.609 27.2876C179.609 27.3648 179.547 27.4497 179.508 27.5269L179.454 27.6427L179.416 27.7353L179.346 27.8665C179.259 28.0446 179.161 28.2173 179.053 28.3836C178.843 28.7333 178.583 29.0505 178.281 29.3252C177.975 29.6016 177.603 29.7955 177.201 29.8886C177.111 29.8955 177.02 29.8955 176.93 29.8886H176.691C176.573 29.8986 176.454 29.8986 176.336 29.8886C176.232 29.873 176.129 29.8498 176.028 29.8191L175.842 29.7419C175.677 29.6608 175.524 29.5569 175.387 29.4332C175.195 29.2611 175.053 29.0395 174.978 28.7926C174.908 28.5637 174.908 28.3192 174.978 28.0903C175.009 27.9567 175.061 27.829 175.132 27.7121C175.179 27.6419 175.233 27.5772 175.294 27.5192C175.387 27.442 175.456 27.442 175.503 27.5192C175.549 27.5964 175.603 27.9128 175.672 28.1675C175.672 28.1675 175.672 28.2215 175.727 28.3141C175.764 28.4038 175.829 28.4794 175.912 28.5302C176.009 28.5867 176.117 28.6234 176.228 28.6383H176.413H176.583C176.714 28.6574 176.846 28.6574 176.977 28.6383C177.17 28.5788 177.347 28.4759 177.494 28.3373C177.703 28.1384 177.885 27.9126 178.034 27.6658C178.119 27.5338 178.196 27.3973 178.266 27.2568L178.32 27.1487L178.003 26.5545L177.571 25.7672Z" fill="#231815"/>
<path d="M179.022 27.8511C179.022 27.8511 179.022 27.8511 179.022 27.8125C178.984 27.6553 178.984 27.4912 179.022 27.334C179.072 27.0905 179.181 26.8628 179.338 26.6703C179.343 26.6611 179.35 26.6529 179.358 26.6463C179.366 26.6397 179.375 26.6347 179.385 26.6317L179.57 26.678L180.056 26.7629C180.514 26.8366 180.98 26.8366 181.438 26.7629C181.632 26.7344 181.819 26.6661 181.986 26.5622C182.103 26.4933 182.197 26.3913 182.256 26.269C182.299 26.1934 182.326 26.109 182.333 26.022V25.9448C182.331 25.9268 182.331 25.9088 182.333 25.8908C182.345 25.8348 182.345 25.777 182.333 25.721C182.276 25.5019 182.179 25.2952 182.047 25.1113C181.785 24.7794 181.692 24.6173 181.785 24.5247C181.89 24.4742 182.004 24.4479 182.121 24.4479C182.237 24.4479 182.352 24.4742 182.456 24.5247C182.702 24.6178 182.924 24.7656 183.105 24.9569C183.264 25.1198 183.393 25.3109 183.483 25.5203C183.516 25.5968 183.539 25.6772 183.552 25.7596V25.8522V25.9294C183.563 26.0062 183.563 26.0841 183.552 26.1609C183.523 26.4131 183.445 26.657 183.321 26.8787C183.152 27.1936 182.905 27.4595 182.603 27.6504C182.294 27.8318 181.954 27.9523 181.6 28.0055C181.017 28.0999 180.423 28.0999 179.84 28.0055C179.346 27.8974 179.037 27.8511 179.022 27.8511Z" fill="#231815"/>
<path d="M200.709 13.959L202.53 14.5687C202.338 14.8697 202.152 15.1475 201.975 15.3945H210.626V17.1542H209.585V18.8135H211.012V20.5732H209.585V22.2248H210.572V23.9922H209.469C210.102 24.6713 210.711 25.3505 211.29 26.0297L209.747 27.1874C209.22 26.4035 208.629 25.6652 207.979 24.9801L209.253 23.9922H199.991L201.319 24.818C200.808 25.6175 200.257 26.3903 199.667 27.1333L198.124 26.0914C198.664 25.4354 199.173 24.7331 199.667 23.9999H199.003V22.2325H199.991V20.5809H198.618V18.8212H199.991V17.8179L199.891 17.9182L199.667 18.1498L199.436 18.3736L199.335 18.4816C198.931 17.9688 198.488 17.4888 198.008 17.0461C199.027 16.1271 199.933 15.0908 200.709 13.959ZM201.813 18.8135H202.584V17.1542H201.813V18.8135ZM201.813 22.2248H202.584V20.5732H201.813V22.2248ZM203.41 24.1542C203.781 24.8257 204.128 25.528 204.46 26.2458L202.801 26.9095C202.492 26.1763 202.16 25.4817 201.813 24.818L203.41 24.1542ZM204.29 17.1542V18.8135H205.224V17.1542H204.29ZM204.29 22.2248H205.224V20.5732H204.275L204.29 22.2248ZM206.436 24.1002C206.933 24.7164 207.394 25.3606 207.817 26.0297L206.274 26.9635C205.875 26.2757 205.434 25.6133 204.954 24.9801L206.436 24.1002ZM206.991 18.8135H207.817V17.1542H206.991V18.8135ZM206.991 20.5732V22.2248H207.817V20.5732H206.991Z" fill="#B81C25"/>
<path d="M216.801 14.345V16.8841L216.901 16.6526L217.125 16.1664L217.357 15.6724L217.457 15.4486L219.108 16.2204L218.507 17.324L217.897 18.366H218.507V20.2414H216.801V20.5192C217.41 21.0197 218.052 21.4787 218.723 21.893L218.584 22.1786L218.283 22.7729L217.982 23.3748L217.843 23.6604C217.481 23.4042 217.133 23.1285 216.801 22.8346V26.8556H214.817V23.3825C214.38 24.0524 213.881 24.6802 213.328 25.258C213.029 24.5996 212.639 23.9865 212.17 23.4366C213.115 22.4825 213.929 21.4082 214.594 20.2414H212.834V18.366H213.606C213.295 17.65 212.944 16.9517 212.556 16.2744L214.046 15.5026L214.169 15.7342C214.455 16.259 214.663 16.6603 214.817 16.9382V14.345H216.801ZM213.606 18.366H214.817V17.764L213.606 18.366ZM216.801 18.366H217.681L217.534 18.2965L217.241 18.1499L216.932 17.9955L216.801 17.9261V18.366ZM218.838 21.947L222.25 21.5071V16.8764L221.208 18.0881C220.583 17.5402 219.942 16.9922 219.278 16.4365L220.436 15.055C221.064 15.503 221.669 15.9821 222.25 16.4905V14.3913H224.233V21.2293L225.229 21.0595L225.499 22.989L224.233 23.151V26.8479H222.25V23.4289L219 23.9228L218.838 21.947ZM219.826 18.5898C220.562 18.969 221.265 19.4105 221.925 19.9095L220.876 21.3991C220.249 20.9099 219.586 20.4687 218.892 20.0793L219.826 18.5898Z" fill="#B81C25"/>
<defs>
<linearGradient id="paint0_linear_3769_12732" x1="54.6885" y1="18.6904" x2="54.6885" y2="35.6689" gradientUnits="userSpaceOnUse">
<stop stop-color="#D84D83"/>
<stop offset="1" stop-color="#D5275E"/>
</linearGradient>
<linearGradient id="paint1_linear_3769_12732" x1="54.6203" y1="18.6904" x2="54.6203" y2="35.6688" gradientUnits="userSpaceOnUse">
<stop stop-color="#D84D83"/>
<stop offset="1" stop-color="#D5275E"/>
</linearGradient>
<linearGradient id="paint2_linear_3769_12732" x1="78.1347" y1="18.6904" x2="78.1347" y2="35.6688" gradientUnits="userSpaceOnUse">
<stop stop-color="#D84D83"/>
<stop offset="1" stop-color="#D5275E"/>
</linearGradient>
<linearGradient id="paint3_linear_3769_12732" x1="78.1858" y1="18.6904" x2="78.1858" y2="35.6688" gradientUnits="userSpaceOnUse">
<stop stop-color="#D84D83"/>
<stop offset="1" stop-color="#D5275E"/>
</linearGradient>
<linearGradient id="paint4_linear_3769_12732" x1="101.385" y1="18.6904" x2="101.385" y2="35.6688" gradientUnits="userSpaceOnUse">
<stop stop-color="#D84D83"/>
<stop offset="1" stop-color="#D5275E"/>
</linearGradient>
<linearGradient id="paint5_linear_3769_12732" x1="101.343" y1="18.6904" x2="101.343" y2="35.6688" gradientUnits="userSpaceOnUse">
<stop stop-color="#D84D83"/>
<stop offset="1" stop-color="#D5275E"/>
</linearGradient>
<linearGradient id="paint6_linear_3769_12732" x1="125.819" y1="18.6904" x2="125.819" y2="35.6688" gradientUnits="userSpaceOnUse">
<stop stop-color="#D84D83"/>
<stop offset="1" stop-color="#D5275E"/>
</linearGradient>
<linearGradient id="paint7_linear_3769_12732" x1="125.819" y1="18.6904" x2="125.819" y2="35.6688" gradientUnits="userSpaceOnUse">
<stop stop-color="#D84D83"/>
<stop offset="1" stop-color="#D5275E"/>
</linearGradient>
<linearGradient id="paint8_linear_3769_12732" x1="148.048" y1="18.6903" x2="148.048" y2="35.6687" gradientUnits="userSpaceOnUse">
<stop stop-color="#D84D83"/>
<stop offset="1" stop-color="#D5275E"/>
</linearGradient>
<linearGradient id="paint9_linear_3769_12732" x1="148.295" y1="18.6904" x2="148.295" y2="35.6688" gradientUnits="userSpaceOnUse">
<stop stop-color="#D84D83"/>
<stop offset="1" stop-color="#D5275E"/>
</linearGradient>
</defs>
</svg>
