<svg width="104" height="35" viewBox="0 0 104 35" fill="none" xmlns="http://www.w3.org/2000/svg">
<path d="M29.4804 22.7498L29.3102 22.486L27.4124 19.4648L26.6209 18.2223L19.9061 7.56714L19.8976 7.58416L19.8891 7.56714L13.1743 18.2223L12.3829 19.4648L10.485 22.486L10.3148 22.7498L7.81274 26.7242L9.77867 32.8943L14.3743 24.7583L14.4594 24.5966L16.1956 21.5243L16.536 20.9371L19.8891 14.9968L19.8976 15.0138L19.9061 14.9968L23.2593 20.9371L23.5997 21.5243L25.3358 24.5966L25.4209 24.7583L30.0166 32.8943L31.9825 26.7242L29.4804 22.7498Z" fill="#B81177"/>
<path d="M12.5359 17.7031L0 7.56714L2.44251 18.8606L5.48075 32.8943H9.77855L6.12755 21.4648L9.34451 22.869L12.5359 17.7031Z" fill="#E15499"/>
<path d="M27.259 17.7031L30.4505 22.869L33.6674 21.4648L30.0164 32.8943H34.3142L37.3525 18.8606L39.795 7.56714L27.259 17.7031Z" fill="#E15499"/>
<path d="M22.6124 21.4562L19.8975 23.5412L17.1827 21.4562L14.97 25.337L19.889 27.4816H19.8975H19.9061L24.8166 25.337L22.6124 21.4562Z" fill="#E15499"/>
<path d="M100.804 20.7577C102.569 13.5388 97.7609 6.16125 90.0646 4.27941C82.3684 2.39758 74.6984 6.72411 72.9333 13.943C71.1682 21.1619 75.9763 28.5394 83.6726 30.4213C91.3688 32.3031 99.0388 27.9766 100.804 20.7577Z" fill="#231815"/>
<path d="M99.6661 20.4794C101.287 13.8512 96.871 7.07706 89.8033 5.34889C82.7355 3.62073 75.6921 7.59299 74.0715 14.2212C72.4508 20.8493 76.8665 27.6235 83.9343 29.3517C91.002 31.0798 98.0454 27.1076 99.6661 20.4794Z" fill="white"/>
<path d="M85.7469 29.536C85.7469 29.536 77.5529 33.1336 72.1052 30.0481C72.1052 30.0481 77.2264 27.4875 77.3353 26.3352C77.3353 26.3352 84.0889 30.477 85.7469 29.536Z" fill="#231815"/>
<path d="M80.8372 25.6375C80.8372 25.6375 76.4329 29.856 75.4087 29.7856C79.1583 30.2043 82.9409 29.3667 86.1632 27.4043L80.8372 25.6375Z" fill="white"/>
<path d="M72.3935 22.5391C72.3935 28.3005 66.3313 32.7815 59.3665 33.4217C50.6028 34.2795 46.6851 28.7358 46.6851 22.9552C46.6851 17.1746 52.3632 12.4823 59.3665 12.4823C66.3697 12.4823 72.3935 16.7585 72.3935 22.5391Z" fill="white"/>
<path d="M54.6037 33.4409C54.6037 33.4409 48.8423 31.8661 50.7116 26.5208C51.0154 26.0595 51.4151 25.6692 51.8836 25.3764C52.352 25.0836 52.878 24.8954 53.4258 24.8244C55.4167 24.4787 56.3513 22.2638 56.3513 22.2638C56.3513 22.2638 56.7226 20.7146 58.1501 20.8363C59.5777 20.9579 59.5008 20.1513 59.5008 20.1513C59.5472 20.0058 59.6242 19.872 59.7266 19.7588C59.8291 19.6456 59.9546 19.5556 60.0947 19.495C60.2348 19.4343 60.3862 19.4044 60.5389 19.4072C60.6915 19.41 60.8418 19.4454 60.9796 19.5111C62.1639 19.9016 64.5516 20.0489 66.1008 18.7942C67.65 17.5395 69.8649 18.6213 69.8649 18.6213C69.8649 18.6213 74.5636 22.251 70.281 28.2876C70.281 28.2876 73.0145 25.8102 73.1425 22.5263C73.2705 19.2423 72.1823 15.5294 65.8832 11.2276L64.0331 10.293L61.1588 7.14981L59.0207 6.85535L58.1053 9.83205L57.3179 12.2902C56.7445 12.1964 56.1572 12.2365 55.6019 12.4075C55.0466 12.5786 54.5384 12.8759 54.1172 13.2761C52.7664 14.6332 52.568 14.1659 52.568 14.1659C52.568 14.1659 49.9754 12.4183 49.252 12.3799C48.5286 12.3415 47.3316 12.2198 47.3316 12.2198L47.1587 18.7942C47.1587 18.7942 46.0705 25.3493 47.1587 27.8203C48.247 30.2913 50.1482 33.2232 54.6037 33.4409Z" fill="#E5C080"/>
<path d="M56.3065 32.9352C56.3196 32.9293 56.3337 32.9263 56.348 32.9263C56.3624 32.9263 56.3766 32.9293 56.3897 32.9352C56.5663 33.0591 56.6986 33.2363 56.7674 33.4409C56.8314 33.6585 56.7674 33.9466 56.3769 34.2411C56.3401 34.2617 56.3016 34.2788 56.2616 34.2923C55.4525 34.2621 54.6473 34.1636 53.8547 33.9978C52.5956 33.7409 51.387 33.2803 50.2762 32.6343C49.1461 31.9658 48.1812 31.0512 47.4531 29.9584C47.3571 29.824 47.2803 29.6768 47.1971 29.5359C47.1102 29.3964 47.0332 29.2509 46.9666 29.1006L46.7554 28.6589L46.5761 28.2044C46.5121 28.0508 46.4737 27.8972 46.4225 27.7435C46.3713 27.5899 46.3201 27.4298 46.2881 27.2762L46.1792 26.8025V26.7001V26.6361C46.1792 26.5848 46.1472 26.5208 46.1344 26.476L46.1024 26.3352C46.0446 26.0073 46.0104 25.6757 46 25.343V24.3955C46 23.7554 46.0448 23.16 46.0896 22.5455V22.4175C46.1856 21.2652 46.3137 20.1193 46.4801 18.9862V18.775V18.7302V18.6918V18.2565C46.4801 17.962 46.4801 17.6739 46.4801 17.3859C46.4801 16.8054 46.4801 16.2229 46.4801 15.6383C46.4801 15.0557 46.5441 14.4732 46.6145 13.8842C46.6145 13.737 46.653 13.5897 46.6786 13.4425L46.7554 12.9944C46.7554 12.8472 46.8194 12.6935 46.8514 12.5463C46.8748 12.433 46.9069 12.3217 46.9474 12.2134L47.0947 11.8357L47.1651 11.6501L47.2035 11.5541V11.5093C47.3324 11.4807 47.4627 11.4593 47.594 11.4452C47.7281 11.4323 47.8631 11.4323 47.9973 11.4452H48.2085H48.3814C48.7001 11.488 49.0148 11.5565 49.3224 11.6501C49.9075 11.837 50.4752 12.0747 51.0188 12.3607L51.2172 12.4631L51.4093 12.5783L51.7998 12.8024L52.1711 13.0392L52.3631 13.1545L52.5424 13.2825L52.824 13.1032L53.2081 12.8728C54.2521 12.255 55.386 11.8037 56.5689 11.5349L56.985 11.4644L57.017 11.2148C57.1002 10.6323 57.1962 10.0561 57.3307 9.47997C57.4562 8.88651 57.6296 8.30421 57.8492 7.73878C57.9661 7.43645 58.1096 7.14509 58.2781 6.86816C58.3293 6.79774 58.3677 6.72093 58.4254 6.65051L58.4701 6.5929C58.4873 6.5658 58.5066 6.54011 58.5278 6.51608L58.6686 6.36243C58.7198 6.31762 58.7646 6.26002 58.8158 6.21521L58.9759 6.08717L59.3024 5.83752C59.3024 5.83752 59.3024 5.83752 59.3344 5.83752H59.3856L59.4944 5.88232L59.712 5.96554C59.8529 6.02316 60.0001 6.08718 60.141 6.1576C60.2818 6.22802 60.4482 6.29842 60.5955 6.38164C60.8899 6.52887 61.178 6.69532 61.4661 6.86816C62.0367 7.21262 62.5802 7.59996 63.092 8.02683C63.6113 8.45209 64.0951 8.9188 64.5388 9.42236L64.8333 9.78084L65.0445 9.89609C65.3326 10.0561 65.6142 10.2162 65.8959 10.389C67.0952 11.1146 68.2227 11.9527 69.2631 12.892C70.327 13.8328 71.2632 14.9089 72.0478 16.0928C72.4647 16.7322 72.8205 17.4095 73.1104 18.1156C73.2513 18.4741 73.3729 18.839 73.4817 19.2103C73.5265 19.4023 73.5841 19.588 73.6161 19.78L73.6674 20.0681C73.6885 20.163 73.7035 20.2593 73.7122 20.3562C73.821 21.1312 73.821 21.9177 73.7122 22.6927C73.6567 23.077 73.5776 23.4576 73.4753 23.8322C73.4241 24.0178 73.3665 24.2035 73.3089 24.3891L73.2705 24.4915C73.1296 24.9012 72.9568 25.2981 72.7776 25.6886L72.5855 26.0087C72.4575 26.2071 72.2782 26.4824 72.0542 26.7833C71.5675 27.4406 71.0093 28.0418 70.3898 28.5757C70.068 28.8767 69.7086 29.1349 69.3207 29.3439C69.0967 29.4527 69.0007 29.4335 69.0071 29.3439C69.2337 28.8847 69.5153 28.4548 69.8457 28.0636C69.7816 28.1084 70.345 27.4234 70.7995 26.604C71.0363 26.2071 71.2348 25.7974 71.382 25.4838L71.5421 25.1061L71.5997 24.9589L71.7021 24.7412L71.7917 24.5172C71.8557 24.3699 71.9069 24.2227 71.9582 24.069L72.0414 23.973C72.0862 23.813 72.1374 23.6594 72.1822 23.4993C72.4428 22.5451 72.5145 21.5491 72.3935 20.5674C72.3935 20.4842 72.3935 20.4074 72.355 20.3241L72.3103 20.0809C72.2782 19.9209 72.2334 19.7672 72.195 19.6072C72.1054 19.2871 71.9966 18.967 71.8749 18.6598C71.6202 18.0352 71.305 17.437 70.9339 16.8737C70.2117 15.791 69.3509 14.8075 68.3733 13.9482C67.396 13.0667 66.3371 12.2801 65.2109 11.5989C64.9485 11.4389 64.686 11.2852 64.4172 11.1444L64.2123 11.0291L64.0011 10.9267C64.0011 10.9267 63.9691 10.9267 63.9563 10.8883L63.9178 10.8371L63.841 10.7475L63.5338 10.3634C63.1389 9.91974 62.7109 9.50673 62.2535 9.1279C61.7907 8.74507 61.3008 8.39634 60.7875 8.08444C60.5315 7.93081 60.269 7.77717 60.0001 7.64274L59.6032 7.44429V7.47631C59.5683 7.52118 59.5362 7.56822 59.5072 7.61715C59.3834 7.82155 59.2764 8.03563 59.1871 8.2573C58.9994 8.75364 58.8475 9.26278 58.7326 9.78084C58.6174 10.3122 58.5214 10.8563 58.4446 11.4004V11.6053V11.7909V11.9958C58.4446 12.1366 58.4446 12.2838 58.3997 12.4247V12.6423V12.7255H58.2909L57.4459 12.8088H57.3435H57.2987H57.2027L57.017 12.8472C55.9795 13.0823 54.9857 13.4798 54.0723 14.0251C53.9507 14.0891 53.8355 14.1659 53.7202 14.2299L53.5538 14.3387L53.4642 14.3964L53.2849 14.518L52.9392 14.7676L52.76 14.8957L52.7216 14.9277L52.6768 14.8957L52.5872 14.8381L51.9086 14.3707L51.7358 14.2491L51.5629 14.1403L51.2172 13.9226L50.8715 13.7242L50.6923 13.6218L50.5131 13.5321C50.0522 13.2733 49.5678 13.0589 49.0663 12.892C48.8294 12.8211 48.5877 12.7676 48.343 12.732H48.3046V12.8024C48.3046 12.9304 48.2405 13.052 48.2213 13.1865L48.1509 13.5833C48.1509 13.7178 48.1189 13.8522 48.0997 13.9866C48.0357 14.5244 47.9909 15.0749 47.9717 15.6254C47.9525 16.176 47.9397 16.7329 47.9717 17.2898C47.9717 17.5715 47.9717 17.8468 47.9717 18.1284V18.5381C47.9717 18.5381 47.9717 18.6534 47.9717 18.7174V18.8902V19.1015C47.8116 20.2153 47.6836 21.3356 47.5876 22.4495V22.5775C47.5428 23.1664 47.5044 23.7554 47.498 24.3379V25.1957C47.5075 25.464 47.5353 25.7314 47.5812 25.9959V26.0791C47.5803 26.0983 47.5803 26.1175 47.5812 26.1367C47.5812 26.1367 47.5812 26.0919 47.5812 26.1047C47.5812 26.1047 47.5812 26.1367 47.5812 26.1431V26.1944V26.2328L47.6132 26.3544L47.7028 26.7641C47.7348 26.8985 47.786 27.0266 47.818 27.161C47.85 27.2954 47.9012 27.4298 47.9525 27.5579L48.0997 27.942L48.2789 28.3133C48.3388 28.4382 48.405 28.56 48.4774 28.6781C48.5392 28.8004 48.6098 28.9181 48.6886 29.0302C49.3002 29.9469 50.1096 30.7147 51.0572 31.2772C52.0354 31.8425 53.0992 32.2446 54.2068 32.4678C54.8927 32.6807 55.595 32.837 56.3065 32.9352V32.9352Z" fill="#231815"/>
<path d="M48.4005 14.5115C48.4005 14.5115 48.2533 16.8736 48.599 17.7571C48.936 17.1405 49.5014 16.6808 50.1738 16.4767L48.4005 14.5115Z" fill="#E27748"/>
<path d="M61.0562 11.7013C61.7258 11.4417 62.418 11.2446 63.1239 11.1124C63.1239 11.1124 61.4019 9.14069 60.7617 9.1919L61.0562 11.7013Z" fill="#E27748"/>
<path d="M53.8354 20.3435C54.2349 20.3435 54.5588 20.0196 54.5588 19.6201C54.5588 19.2206 54.2349 18.8967 53.8354 18.8967C53.4359 18.8967 53.1121 19.2206 53.1121 19.6201C53.1121 20.0196 53.4359 20.3435 53.8354 20.3435Z" fill="white"/>
<path d="M60.9348 17.021C61.3343 17.021 61.6582 16.6971 61.6582 16.2976C61.6582 15.8981 61.3343 15.5742 60.9348 15.5742C60.5353 15.5742 60.2114 15.8981 60.2114 16.2976C60.2114 16.6971 60.5353 17.021 60.9348 17.021Z" fill="white"/>
<path d="M52.435 26.843C53.4128 26.3967 53.9877 25.5578 53.7191 24.9693C53.4505 24.3807 52.4401 24.2652 51.4623 24.7115C50.4845 25.1577 49.9096 25.9966 50.1783 26.5851C50.4469 27.1737 51.4573 27.2892 52.435 26.843Z" fill="#DD874C"/>
<path d="M67.4963 19.968C68.4741 19.5217 69.049 18.6829 68.7804 18.0943C68.5118 17.5057 67.5014 17.3902 66.5236 17.8365C65.5458 18.2827 64.9709 19.1216 65.2395 19.7102C65.5082 20.2988 66.5185 20.4142 67.4963 19.968Z" fill="#DD874C"/>
<path d="M55.6857 34.2603C55.6678 34.2623 55.6496 34.2599 55.6329 34.2532C55.6161 34.2465 55.6012 34.2357 55.5897 34.2218C55.4031 34.0982 55.2704 33.9083 55.2184 33.6905C55.1864 33.4601 55.2888 33.1976 55.6537 32.9223C55.6867 32.899 55.7236 32.8817 55.7625 32.8711C56.5046 32.9095 57.2482 32.9095 57.9903 32.8711C60.3742 32.7845 62.7237 32.2751 64.9295 31.3668L65.4928 31.1171L66.037 30.8418L66.1202 30.8034L66.3443 30.6946L66.6835 30.5346L67.106 30.3169C67.2706 30.238 67.4309 30.1504 67.5861 30.0545L67.8358 29.9136L68.0855 29.76L68.3351 29.6L68.4632 29.5231L68.5848 29.4399L69.0521 29.1198C69.2953 28.9278 69.5002 28.7741 69.6922 28.6525C69.8191 28.5492 69.9516 28.453 70.0891 28.3644C70.3004 28.2364 70.3964 28.23 70.4028 28.326C70.3751 28.5173 70.3028 28.6993 70.1916 28.8574L70.0699 29.0558L69.9227 29.2607C69.8139 29.4015 69.6986 29.5551 69.5642 29.7088C69.4566 29.8533 69.3343 29.9863 69.1993 30.1057C69.0777 30.2401 68.9176 30.3745 68.7512 30.5346C68.5848 30.6946 68.5784 30.6946 68.4824 30.7714L68.2007 31.0147L67.9062 31.2515L67.6117 31.4628L67.3365 31.6612L67.0804 31.8277L66.6899 32.0709L66.5363 32.1606C66.3698 32.2502 66.197 32.3398 66.0242 32.4166L65.4992 32.6535C64.909 32.8979 64.3064 33.1115 63.694 33.2936L63.47 33.364L63.2395 33.428L62.7786 33.5561C62.4649 33.6265 62.1384 33.7097 61.8504 33.7673C60.6085 34.0287 59.3476 34.1893 58.0799 34.2474C57.2826 34.294 56.4834 34.2983 55.6857 34.2603V34.2603Z" fill="#B81C25"/>
<path d="M54.9431 21.8349C55.436 22.5903 54.8855 23.0832 54.1365 23.5761C53.3875 24.0691 52.709 24.3699 52.2161 23.6146C52.0992 23.4355 52.0188 23.2352 51.9793 23.025C51.9399 22.8149 51.9423 22.599 51.9862 22.3898C52.0302 22.1805 52.115 21.982 52.2357 21.8055C52.3564 21.629 52.5107 21.4781 52.6898 21.3612C52.8688 21.2444 53.0692 21.1639 53.2793 21.1245C53.4895 21.0851 53.7053 21.0874 53.9146 21.1314C54.1238 21.1754 54.3223 21.2601 54.4988 21.3809C54.6753 21.5016 54.8263 21.6559 54.9431 21.8349V21.8349Z" fill="#231815"/>
<path d="M54.7574 21.4125C54.8534 21.4765 54.847 21.6557 54.7574 21.8158C54.7125 21.8679 54.6577 21.9107 54.5962 21.9414C54.5346 21.9722 54.4676 21.9904 54.3989 21.995C54.3725 21.9322 54.3589 21.8647 54.3589 21.7966C54.3589 21.7284 54.3725 21.661 54.3989 21.5981C54.4949 21.4637 54.655 21.4125 54.7574 21.4125Z" fill="#F7F7F7"/>
<path d="M64.8395 17.5714C65.102 18.4292 64.4426 18.7557 63.5592 19.0182C62.6758 19.2807 61.9652 19.3895 61.7028 18.5317C61.5754 18.1191 61.6172 17.6729 61.8189 17.2911C62.0206 16.9093 62.3657 16.6233 62.7782 16.496C63.1908 16.3687 63.637 16.4104 64.0188 16.6121C64.4006 16.8138 64.6866 17.1589 64.8139 17.5714H64.8395Z" fill="#231815"/>
<path d="M64.7564 17.1169C64.8332 17.2002 64.7564 17.373 64.6348 17.501C64.6205 17.538 64.5969 17.5707 64.5662 17.5958C64.5356 17.621 64.499 17.6379 64.46 17.6448C64.4209 17.6516 64.3807 17.6483 64.3433 17.6352C64.3059 17.622 64.2726 17.5994 64.2465 17.5696C64.2204 17.5397 64.2024 17.5037 64.1943 17.4648C64.1862 17.426 64.1883 17.3858 64.2003 17.348C64.2123 17.3102 64.2339 17.2761 64.2629 17.2491C64.2919 17.2221 64.3274 17.203 64.3659 17.1938C64.5068 17.0657 64.6796 17.0337 64.7564 17.1169Z" fill="#F7F7F7"/>
<path d="M59.4871 22.4177C60.3469 22.0828 60.8443 21.2986 60.5979 20.6661C60.3516 20.0335 59.4548 19.7923 58.595 20.1271C57.7351 20.462 57.2378 21.2463 57.4842 21.8788C57.7305 22.5113 58.6273 22.7526 59.4871 22.4177Z" fill="#231815"/>
<path d="M61.5171 23.4417L61.1586 23.3329C60.2304 24.0178 60.192 26.3352 60.2048 27.1034C60.4225 27.2537 60.6787 27.3384 60.9431 27.3475C61.2074 27.3566 61.4689 27.2896 61.6963 27.1546C63.6296 26.2072 61.5171 23.4417 61.5171 23.4417Z" fill="#CF341A"/>
<path d="M61.1588 23.3328L60.0898 23.0127L59.0527 25.1572C59.2496 25.8986 59.659 26.5662 60.2306 27.0777C60.2114 26.3415 60.2498 24.0241 61.1588 23.3328Z" fill="#B01E23"/>
<path d="M58.8542 22.2446C58.8542 22.2446 58.8542 22.2446 58.8542 22.2062C58.9354 22.0515 59.0613 21.9249 59.2154 21.8427C59.3695 21.7605 59.5448 21.7265 59.7184 21.7453H59.7696L60.1282 22.4366L60.301 22.7567L60.397 22.9487L60.493 23.128L60.5827 23.3136V23.3585C60.5827 23.3585 60.5827 23.3905 60.5827 23.4097L60.5442 23.5057C60.5442 23.5697 60.493 23.6401 60.461 23.7041L60.4162 23.8002L60.3842 23.877L60.3266 23.9858C60.2542 24.1335 60.173 24.2768 60.0833 24.4147C59.9091 24.7048 59.6934 24.9679 59.4432 25.1957C59.189 25.425 58.8805 25.5858 58.547 25.663C58.4724 25.6688 58.3975 25.6688 58.3229 25.663H58.1245C58.0265 25.6713 57.928 25.6713 57.83 25.663C57.7433 25.6501 57.6577 25.6309 57.5739 25.6054L57.4203 25.5414C57.283 25.4741 57.1559 25.3879 57.0426 25.2853C56.8831 25.1425 56.7658 24.9588 56.7033 24.754C56.6454 24.5641 56.6454 24.3613 56.7033 24.1714C56.7287 24.0606 56.772 23.9547 56.8314 23.8578C56.87 23.7995 56.9151 23.7458 56.9658 23.6977C57.0426 23.6337 57.1002 23.6337 57.1386 23.6977C57.177 23.7617 57.2219 24.0242 57.2795 24.2355C57.2795 24.2355 57.2795 24.2803 57.3243 24.3571C57.3554 24.4315 57.4092 24.4942 57.4779 24.5363C57.5587 24.5832 57.6479 24.6136 57.7404 24.6259H57.894H58.0348C58.1431 24.6418 58.2531 24.6418 58.3613 24.6259C58.5215 24.5767 58.6682 24.4912 58.7902 24.3763C58.9636 24.2113 59.1143 24.024 59.2383 23.8194C59.3085 23.7099 59.3726 23.5966 59.4304 23.4801L59.4752 23.3905L59.2127 22.8975L58.8542 22.2446Z" fill="#231815"/>
<path d="M60.0576 23.9731C60.0576 23.9731 60.0576 23.9731 60.0576 23.9411C60.0261 23.8106 60.0261 23.6746 60.0576 23.5442C60.0994 23.3422 60.1895 23.1533 60.32 22.9936C60.324 22.986 60.3294 22.9792 60.336 22.9737C60.3426 22.9682 60.3502 22.9641 60.3584 22.9616L60.5121 23L60.9154 23.0705C61.2949 23.1316 61.6817 23.1316 62.0612 23.0705C62.2226 23.0469 62.3773 22.9902 62.5157 22.904C62.6128 22.8469 62.6908 22.7622 62.7398 22.6608C62.7761 22.5981 62.798 22.5281 62.8038 22.4559V22.3919C62.8026 22.377 62.8026 22.362 62.8038 22.3471C62.8137 22.3006 62.8137 22.2527 62.8038 22.2062C62.7567 22.0245 62.6764 21.8531 62.567 21.7005C62.3493 21.4253 62.2725 21.2908 62.3493 21.214C62.4361 21.1721 62.5313 21.1503 62.6278 21.1503C62.7242 21.1503 62.8194 21.1721 62.9063 21.214C63.1103 21.2912 63.2942 21.4138 63.444 21.5725C63.5764 21.7076 63.6828 21.8661 63.7576 22.0398C63.7853 22.1032 63.8046 22.1699 63.8153 22.2383V22.3151V22.3791C63.8244 22.4428 63.8244 22.5074 63.8153 22.5711C63.7912 22.7803 63.7259 22.9827 63.6232 23.1665C63.4834 23.4277 63.2783 23.6482 63.0279 23.8066C62.7718 23.9571 62.4893 24.057 62.1957 24.1011C61.7123 24.1794 61.2195 24.1794 60.7361 24.1011C60.3264 24.0115 60.0704 23.9731 60.0576 23.9731Z" fill="#231815"/>
<path d="M78.046 12.4502L79.5567 12.9559C79.3967 13.2056 79.243 13.436 79.0958 13.6409H86.2719V15.1004H85.4077V16.4768H86.592V17.9363H85.4077V19.3062H86.2271V20.7722H85.3117C85.8366 21.3355 86.3423 21.8988 86.8224 22.4622L85.5421 23.4224C85.1055 22.7723 84.6151 22.1598 84.0762 21.5916L85.1324 20.7722H77.4506L78.5517 21.4571C78.1282 22.1203 77.671 22.7613 77.1817 23.3776L75.9014 22.5134C76.3495 21.9693 76.772 21.3867 77.1817 20.7786H76.6312V19.3126H77.4506V17.9427H76.3111V16.4831H77.4506V15.651L77.3674 15.7342L77.1817 15.9262L76.9897 16.1119L76.9065 16.2015C76.5715 15.7761 76.2033 15.378 75.8054 15.0108C76.6505 14.2485 77.4026 13.389 78.046 12.4502ZM78.9614 16.4768H79.6015V15.1004H78.9614V16.4768ZM78.9614 19.3062H79.6015V17.9363H78.9614V19.3062ZM80.2865 20.9066C80.5938 21.4635 80.8818 22.0461 81.1571 22.6414L79.7808 23.1919C79.5247 22.5838 79.2494 22.0077 78.9614 21.4571L80.2865 20.9066ZM81.0162 15.1004V16.4768H81.7908V15.1004H81.0162ZM81.0162 19.3062H81.7908V17.9363H81.0035L81.0162 19.3062ZM82.7959 20.8618C83.2081 21.3729 83.5907 21.9072 83.9417 22.4622L82.6614 23.2368C82.3309 22.6663 81.9653 22.1168 81.5668 21.5916L82.7959 20.8618ZM83.2568 16.4768H83.9417V15.1004H83.2568V16.4768ZM83.2568 17.9363V19.3062H83.9417V17.9363H83.2568Z" fill="#B81C25"/>
<path d="M91.3932 12.7704V14.8765L91.4764 14.6844L91.662 14.2811L91.8541 13.8714L91.9373 13.6858L93.3072 14.326L92.8079 15.2414L92.3022 16.1056H92.8079V17.6612H91.3932V17.8916C91.8983 18.3067 92.4309 18.6874 92.9871 19.0311L92.8719 19.2679L92.6222 19.7609L92.3726 20.2602L92.2573 20.497C91.9571 20.2845 91.6686 20.0559 91.3932 19.8121V23.1472H89.748V20.2666C89.3851 20.8222 88.9715 21.3429 88.5125 21.8221C88.2647 21.2761 87.9415 20.7675 87.5522 20.3114C88.3357 19.52 89.0115 18.6289 89.5623 17.6612H88.1028V16.1056H88.7429C88.4849 15.5117 88.1943 14.9326 87.8723 14.3708L89.1078 13.7306L89.2102 13.9227C89.4471 14.358 89.6199 14.6908 89.748 14.9213V12.7704H91.3932ZM88.7429 16.1056H89.748V15.6063L88.7429 16.1056ZM91.3932 16.1056H92.1229L92.0013 16.048L91.758 15.9263L91.502 15.7983L91.3932 15.7407V16.1056ZM93.0831 19.0759L95.9126 18.711V14.8701L95.0484 15.8751C94.5299 15.4206 93.9986 14.9661 93.448 14.5052L94.4083 13.3593C94.9292 13.7309 95.4313 14.1283 95.9126 14.55V12.8088H97.5578V18.4806L98.3836 18.3397L98.6077 19.9401L97.5578 20.0745V23.1409H95.9126V20.305L93.2176 20.7147L93.0831 19.0759ZM93.9025 16.2912C94.5131 16.6058 95.0957 16.972 95.6438 17.3859L94.7732 18.6214C94.2531 18.2156 93.7031 17.8497 93.128 17.5267L93.9025 16.2912Z" fill="#B81C25"/>
</svg>
